Alice.ufo
<glyph name="exclam" format="1">
  <advance width="286"/>
  <unicode hex="0021"/>
  <outline>
    <contour>
      <point x="103" y="660" type="line"/>
      <point x="103" y="208" type="line"/>
      <point x="183" y="208" type="line"/>
      <point x="183" y="660" type="line"/>
    </contour>
    <contour>
      <point x="107" y="120"/>
      <point x="78" y="91"/>
      <point x="78" y="55" type="curve" smooth="yes"/>
      <point x="78" y="19"/>
      <point x="107" y="-10"/>
      <point x="143" y="-10" type="curve" smooth="yes"/>
      <point x="179" y="-10"/>
      <point x="208" y="19"/>
      <point x="208" y="55" type="curve" smooth="yes"/>
      <point x="208" y="91"/>
      <point x="179" y="120"/>
      <point x="143" y="120" type="curve" smooth="yes"/>
    </contour>
  </outline>
</glyph>
<glyph name="dollar" format="1">
  <advance width="615"/>
  <unicode hex="0024"/>
  <outline>
    <contour>
      <point x="166" y="660"/>
      <point x="77" y="575"/>
      <point x="77" y="469" type="curve" smooth="yes"/>
      <point x="77" y="365"/>
      <point x="143" y="321"/>
      <point x="289" y="293" type="curve" smooth="yes"/>
      <point x="448" y="260"/>
      <point x="476" y="235"/>
      <point x="476" y="176" type="curve" smooth="yes"/>
      <point x="476" y="108"/>
      <point x="412" y="75"/>
      <point x="321" y="75" type="curve" smooth="yes"/>
      <point x="231" y="75"/>
      <point x="144" y="133"/>
      <point x="132" y="213" type="curve"/>
      <point x="51" y="171" type="line"/>
      <point x="89" y="60"/>
      <point x="184" y="0"/>
      <point x="319" y="0" type="curve" smooth="yes"/>
      <point x="462" y="0"/>
      <point x="559" y="70"/>
      <point x="559" y="183" type="curve" smooth="yes"/>
      <point x="559" y="287"/>
      <point x="498" y="333"/>
      <point x="345" y="363" type="curve" smooth="yes"/>
      <point x="196" y="392"/>
      <point x="161" y="418"/>
      <point x="161" y="478" type="curve" smooth="yes"/>
      <point x="161" y="541"/>
      <point x="215" y="585"/>
      <point x="314" y="585" type="curve" smooth="yes"/>
      <point x="406" y="585"/>
      <point x="450" y="550"/>
      <point x="488" y="463" type="curve"/>
      <point x="558" y="520" type="line"/>
      <point x="506" y="615"/>
      <point x="439" y="660"/>
      <point x="313" y="660" type="curve" smooth="yes"/>
    </contour>
    <contour>
      <point x="283" y="740" type="line"/>
      <point x="283" y="-80" type="line"/>
      <point x="352" y="-80" type="line"/>
      <point x="352" y="740" type="line"/>
    </contour>
  </outline>
</glyph>
<glyph name="ampersand" format="1">
  <advance width="655"/>
  <unicode hex="0026"/>
  <outline>
    <contour>
      <point x="647" y="53" type="line"/>
      <point x="575" y="53"/>
      <point x="549" y="82"/>
      <point x="396" y="272" type="curve" smooth="yes"/>
      <point x="250" y="453"/>
      <point x="230" y="476"/>
      <point x="230" y="525" type="curve" smooth="yes"/>
      <point x="230" y="565"/>
      <point x="263" y="595"/>
      <point x="310" y="595" type="curve" smooth="yes"/>
      <point x="357" y="595"/>
      <point x="388" y="574"/>
      <point x="388" y="529" type="curve" smooth="yes"/>
      <point x="388" y="482"/>
      <point x="379" y="439"/>
      <point x="269" y="387" type="curve" smooth="yes"/>
      <point x="120" y="316"/>
      <point x="70" y="250"/>
      <point x="70" y="162" type="curve" smooth="yes"/>
      <point x="70" y="64"/>
      <point x="156" y="-5"/>
      <point x="279" y="-5" type="curve" smooth="yes"/>
      <point x="486" y="-5"/>
      <point x="594" y="167"/>
      <point x="582" y="328" type="curve"/>
      <point x="510" y="336" type="line"/>
      <point x="523" y="176"/>
      <point x="420" y="62"/>
      <point x="276" y="62" type="curve" smooth="yes"/>
      <point x="209" y="62"/>
      <point x="149" y="103"/>
      <point x="149" y="169" type="curve" smooth="yes"/>
      <point x="149" y="220"/>
      <point x="173" y="262"/>
      <point x="310" y="335" type="curve" smooth="yes"/>
      <point x="440" y="404"/>
      <point x="461" y="460"/>
      <point x="461" y="534" type="curve" smooth="yes"/>
      <point x="461" y="634"/>
      <point x="384" y="665"/>
      <point x="307" y="665" type="curve" smooth="yes"/>
      <point x="205" y="665"/>
      <point x="152" y="596"/>
      <point x="152" y="524" type="curve" smooth="yes"/>
      <point x="152" y="449"/>
      <point x="198" y="401"/>
      <point x="334" y="232" type="curve" smooth="yes"/>
      <point x="507" y="17"/>
      <point x="549" y="-10"/>
      <point x="627" y="-10" type="curve"/>
    </contour>
  </outline>
</glyph>
<glyph name="quotesingle" format="1">
  <advance width="229"/>
  <unicode hex="0027"/>
  <outline>
    <contour>
      <point x="77" y="730" type="line"/>
      <point x="77" y="483" type="line"/>
      <point x="152" y="483" type="line"/>
      <point x="152" y="730" type="line"/>
    </contour>
  </outline>
</glyph>
<glyph name="parenleft" format="1">
  <advance width="411"/>
  <unicode hex="0028"/>
  <outline>
    <contour>
      <point x="79" y="93"/>
      <point x="152" y="-67"/>
      <point x="293" y="-189" type="curve"/>
      <point x="337" y="-146" type="line"/>
      <point x="210" y="-30"/>
      <point x="161" y="96"/>
      <point x="161" y="281" type="curve" smooth="yes"/>
      <point x="161" y="466"/>
      <point x="210" y="592"/>
      <point x="337" y="708" type="curve"/>
      <point x="293" y="751" type="line"/>
      <point x="152" y="629"/>
      <point x="79" y="469"/>
      <point x="79" y="281" type="curve" smooth="yes"/>
    </contour>
  </outline>
</glyph>
<glyph name="plus" format="1">
  <advance width="620"/>
  <unicode hex="002B"/>
  <outline>
    <contour>
      <point x="273" y="534" type="line"/>
      <point x="273" y="48" type="line"/>
      <point x="348" y="48" type="line"/>
      <point x="348" y="534" type="line"/>
    </contour>
    <contour>
      <point x="67" y="328" type="line"/>
      <point x="67" y="253" type="line"/>
      <point x="553" y="253" type="line"/>
      <point x="553" y="328" type="line"/>
    </contour>
  </outline>
</glyph>
<glyph name="comma" format="1">
  <advance width="286"/>
  <unicode hex="002C"/>
  <outline>
    <contour>
      <point x="101" y="118" type="line"/>
      <point x="52" y="-129" type="line"/>
      <point x="110" y="-129" type="line"/>
      <point x="203" y="118" type="line"/>
    </contour>
  </outline>
</glyph>
<glyph name="period" format="1">
  <advance width="286"/>
  <unicode hex="002E"/>
  <outline>
    <contour>
      <point x="107" y="120"/>
      <point x="78" y="91"/>
      <point x="78" y="55" type="curve" smooth="yes"/>
      <point x="78" y="19"/>
      <point x="107" y="-10"/>
      <point x="143" y="-10" type="curve" smooth="yes"/>
      <point x="179" y="-10"/>
      <point x="208" y="19"/>
      <point x="208" y="55" type="curve" smooth="yes"/>
      <point x="208" y="91"/>
      <point x="179" y="120"/>
      <point x="143" y="120" type="curve" smooth="yes"/>
    </contour>
  </outline>
</glyph>
<glyph name="zero" format="1">
  <advance width="628"/>
  <unicode hex="0030"/>
  <outline>
    <contour>
      <point x="148" y="670"/>
      <point x="58" y="551"/>
      <point x="58" y="330" type="curve" smooth="yes"/>
      <point x="58" y="109"/>
      <point x="148" y="-10"/>
      <point x="314" y="-10" type="curve" smooth="yes"/>
      <point x="480" y="-10"/>
      <point x="570" y="109"/>
      <point x="570" y="330" type="curve" smooth="yes"/>
      <point x="570" y="551"/>
      <point x="480" y="670"/>
      <point x="314" y="670" type="curve" smooth="yes"/>
    </contour>
    <contour>
      <point x="426" y="595"/>
      <point x="486" y="502"/>
      <point x="486" y="330" type="curve" smooth="yes"/>
      <point x="486" y="158"/>
      <point x="426" y="65"/>
      <point x="314" y="65" type="curve" smooth="yes"/>
      <point x="202" y="65"/>
      <point x="142" y="158"/>
      <point x="142" y="330" type="curve" smooth="yes"/>
      <point x="142" y="502"/>
      <point x="202" y="595"/>
      <point x="314" y="595" type="curve" smooth="yes"/>
    </contour>
  </outline>
</glyph>
<glyph name="one" format="1">
  <advance width="421"/>
  <unicode hex="0031"/>
  <outline>
    <contour>
      <point x="241" y="660" type="line"/>
      <point x="231" y="506" type="line"/>
      <point x="231" y="0" type="line"/>
      <point x="311" y="0" type="line"/>
      <point x="311" y="506" type="line"/>
      <point x="311" y="660" type="line"/>
    </contour>
    <contour>
      <point x="204" y="609"/>
      <point x="98" y="550"/>
      <point x="51" y="544" type="curve"/>
      <point x="51" y="463" type="line"/>
      <point x="145" y="472"/>
      <point x="251" y="555"/>
      <point x="286" y="634" type="curve"/>
      <point x="241" y="660" type="line"/>
    </contour>
  </outline>
</glyph>
<glyph name="two" format="1">
  <advance width="570"/>
  <unicode hex="0032"/>
  <outline>
    <contour>
      <point x="139" y="670"/>
      <point x="60" y="593"/>
      <point x="32" y="482" type="curve"/>
      <point x="102" y="440" type="line"/>
      <point x="122" y="535"/>
      <point x="179" y="595"/>
      <point x="275" y="595" type="curve" smooth="yes"/>
      <point x="361" y="595"/>
      <point x="415" y="541"/>
      <point x="415" y="463" type="curve" smooth="yes"/>
      <point x="415" y="346"/>
      <point x="281" y="259"/>
      <point x="52" y="65" type="curve"/>
      <point x="98" y="23" type="line"/>
      <point x="340" y="212"/>
      <point x="499" y="306"/>
      <point x="499" y="463" type="curve" smooth="yes"/>
      <point x="499" y="585"/>
      <point x="413" y="670"/>
      <point x="278" y="670" type="curve" smooth="yes"/>
    </contour>
    <contour>
      <point x="235" y="75" type="line"/>
      <point x="52" y="65" type="line"/>
      <point x="52" y="0" type="line"/>
      <point x="235" y="0" type="line"/>
      <point x="511" y="0" type="line"/>
      <point x="511" y="75" type="line"/>
    </contour>
  </outline>
</glyph>
<glyph name="three" format="1">
  <advance width="516"/>
  <unicode hex="0033"/>
  <outline>
    <contour>
      <point x="207" y="334" type="line"/>
      <point x="207" y="295" type="line"/>
      <point x="233" y="295" type="line" smooth="yes"/>
      <point x="334" y="295"/>
      <point x="384" y="268"/>
      <point x="385" y="180" type="curve" smooth="yes"/>
      <point x="386" y="117"/>
      <point x="331" y="65"/>
      <point x="242" y="65" type="curve" smooth="yes"/>
      <point x="144" y="65"/>
      <point x="107" y="112"/>
      <point x="86" y="181" type="curve"/>
      <point x="6" y="137" type="line"/>
      <point x="44" y="42"/>
      <point x="113" y="-10"/>
      <point x="236" y="-10" type="curve" smooth="yes"/>
      <point x="377" y="-10"/>
      <point x="468" y="70"/>
      <point x="468" y="177" type="curve" smooth="yes"/>
      <point x="468" y="253"/>
      <point x="426" y="334"/>
      <point x="321" y="334" type="curve" smooth="yes"/>
    </contour>
    <contour>
      <point x="139" y="670"/>
      <point x="54" y="617"/>
      <point x="24" y="513" type="curve"/>
      <point x="102" y="477" type="line"/>
      <point x="119" y="553"/>
      <point x="164" y="595"/>
      <point x="248" y="595" type="curve" smooth="yes"/>
      <point x="327" y="595"/>
      <point x="371" y="556"/>
      <point x="370" y="479" type="curve" smooth="yes"/>
      <point x="369" y="405"/>
      <point x="322" y="370"/>
      <point x="233" y="370" type="curve" smooth="yes"/>
      <point x="207" y="370" type="line"/>
      <point x="207" y="334" type="line"/>
      <point x="321" y="334" type="line" smooth="yes"/>
      <point x="404" y="334"/>
      <point x="453" y="413"/>
      <point x="453" y="498" type="curve" smooth="yes"/>
      <point x="453" y="589"/>
      <point x="382" y="670"/>
      <point x="247" y="670" type="curve" smooth="yes"/>
    </contour>
  </outline>
</glyph>
<glyph name="four" format="1">
  <advance width="600"/>
  <unicode hex="0034"/>
  <outline>
    <contour>
      <point x="342" y="660" type="line"/>
      <point x="44" y="242" type="line"/>
      <point x="100" y="197" type="line"/>
      <point x="430" y="660" type="line"/>
    </contour>
    <contour>
      <point x="44" y="242" type="line"/>
      <point x="44" y="173" type="line"/>
      <point x="563" y="173" type="line"/>
      <point x="563" y="242" type="line"/>
    </contour>
    <contour>
      <point x="44" y="242" type="line"/>
      <point x="44" y="173" type="line"/>
      <point x="563" y="173" type="line"/>
      <point x="563" y="242" type="line"/>
    </contour>
    <contour>
      <point x="366" y="660" type="line"/>
      <point x="366" y="0" type="line"/>
      <point x="446" y="0" type="line"/>
      <point x="446" y="660" type="line"/>
    </contour>
  </outline>
</glyph>
<glyph name="five" format="1">
  <advance width="575"/>
  <unicode hex="0035"/>
  <outline>
    <contour>
      <point x="185" y="418"/>
      <point x="124" y="353"/>
      <point x="94" y="284" type="curve"/>
      <point x="142" y="284" type="line"/>
      <point x="170" y="325"/>
      <point x="225" y="343"/>
      <point x="289" y="342" type="curve" smooth="yes"/>
      <point x="378" y="343"/>
      <point x="428" y="300"/>
      <point x="429" y="206" type="curve" smooth="yes"/>
      <point x="430" y="118"/>
      <point x="374" y="65"/>
      <point x="283" y="65" type="curve" smooth="yes"/>
      <point x="191" y="65"/>
      <point x="155" y="112"/>
      <point x="134" y="182" type="curve"/>
      <point x="50" y="137" type="line"/>
      <point x="88" y="42"/>
      <point x="163" y="-10"/>
      <point x="286" y="-10" type="curve" smooth="yes"/>
      <point x="427" y="-10"/>
      <point x="512" y="73"/>
      <point x="512" y="210" type="curve" smooth="yes"/>
      <point x="512" y="336"/>
      <point x="432" y="416"/>
      <point x="304" y="417" type="curve" smooth="yes"/>
    </contour>
    <contour>
      <point x="111" y="660" type="line"/>
      <point x="71" y="284" type="line"/>
      <point x="142" y="284" type="line"/>
      <point x="188" y="660" type="line"/>
    </contour>
    <contour>
      <point x="150" y="660" type="line"/>
      <point x="141" y="585" type="line"/>
      <point x="482" y="585" type="line"/>
      <point x="482" y="660" type="line"/>
    </contour>
  </outline>
</glyph>
<glyph name="six" format="1">
  <advance width="606"/>
  <unicode hex="0036"/>
  <outline>
    <contour>
      <point x="146" y="670"/>
      <point x="56" y="551"/>
      <point x="56" y="330" type="curve" smooth="yes"/>
      <point x="56" y="109"/>
      <point x="146" y="-10"/>
      <point x="312" y="-10" type="curve" smooth="yes"/>
      <point x="451" y="-10"/>
      <point x="539" y="73"/>
      <point x="539" y="204" type="curve" smooth="yes"/>
      <point x="539" y="335"/>
      <point x="451" y="418"/>
      <point x="312" y="418" type="curve" smooth="yes"/>
      <point x="216" y="418"/>
      <point x="119" y="344"/>
      <point x="85" y="226" type="curve"/>
      <point x="131" y="194" type="line"/>
      <point x="168" y="286"/>
      <point x="232" y="343"/>
      <point x="312" y="343" type="curve" smooth="yes"/>
      <point x="404" y="343"/>
      <point x="455" y="294"/>
      <point x="455" y="205" type="curve" smooth="yes"/>
      <point x="455" y="115"/>
      <point x="404" y="66"/>
      <point x="312" y="67" type="curve" smooth="yes"/>
      <point x="197" y="66"/>
      <point x="136" y="160"/>
      <point x="136" y="330" type="curve" smooth="yes"/>
      <point x="136" y="502"/>
      <point x="202" y="595"/>
      <point x="307" y="595" type="curve" smooth="yes"/>
      <point x="385" y="595"/>
      <point x="424" y="564"/>
      <point x="445" y="493" type="curve"/>
      <point x="524" y="531" type="line"/>
      <point x="495" y="625"/>
      <point x="425" y="670"/>
      <point x="312" y="670" type="curve" smooth="yes"/>
    </contour>
  </outline>
</glyph>
<glyph name="seven" format="1">
  <advance width="550"/>
  <unicode hex="0037"/>
  <outline>
    <contour>
      <point x="275" y="428"/>
      <point x="189" y="188"/>
      <point x="189" y="0" type="curve"/>
      <point x="278" y="0" type="line"/>
      <point x="278" y="188"/>
      <point x="356" y="401"/>
      <point x="511" y="585" type="curve"/>
      <point x="458" y="626" type="line"/>
    </contour>
    <contour>
      <point x="25" y="660" type="line"/>
      <point x="25" y="585" type="line"/>
      <point x="511" y="585" type="line"/>
      <point x="511" y="660" type="line"/>
    </contour>
  </outline>
</glyph>
<glyph name="eight" format="1">
  <advance width="595"/>
  <unicode hex="0038"/>
  <outline>
    <contour>
      <point x="153" y="367"/>
      <point x="58" y="294"/>
      <point x="58" y="178" type="curve" smooth="yes"/>
      <point x="58" y="63"/>
      <point x="153" y="-10"/>
      <point x="297" y="-10" type="curve" smooth="yes"/>
      <point x="442" y="-10"/>
      <point x="537" y="63"/>
      <point x="537" y="178" type="curve" smooth="yes"/>
      <point x="537" y="294"/>
      <point x="442" y="367"/>
      <point x="297" y="366" type="curve" smooth="yes"/>
    </contour>
    <contour>
      <point x="392" y="308"/>
      <point x="453" y="262"/>
      <point x="454" y="186" type="curve" smooth="yes"/>
      <point x="455" y="111"/>
      <point x="394" y="65"/>
      <point x="297" y="65" type="curve" smooth="yes"/>
      <point x="201" y="65"/>
      <point x="140" y="111"/>
      <point x="141" y="186" type="curve" smooth="yes"/>
      <point x="142" y="262"/>
      <point x="203" y="308"/>
      <point x="297" y="308" type="curve" smooth="yes"/>
    </contour>
    <contour>
      <point x="375" y="595"/>
      <point x="425" y="555"/>
      <point x="424" y="488" type="curve" smooth="yes"/>
      <point x="423" y="423"/>
      <point x="373" y="383"/>
      <point x="297" y="383" type="curve" smooth="yes"/>
      <point x="221" y="383"/>
      <point x="171" y="423"/>
      <point x="170" y="488" type="curve" smooth="yes"/>
      <point x="169" y="555"/>
      <point x="219" y="595"/>
      <point x="297" y="594" type="curve" smooth="yes"/>
    </contour>
    <contour>
      <point x="170" y="670"/>
      <point x="87" y="603"/>
      <point x="87" y="496" type="curve" smooth="yes"/>
      <point x="87" y="390"/>
      <point x="170" y="323"/>
      <point x="297" y="323" type="curve" smooth="yes"/>
      <point x="424" y="323"/>
      <point x="507" y="390"/>
      <point x="507" y="496" type="curve" smooth="yes"/>
      <point x="507" y="603"/>
      <point x="424" y="670"/>
      <point x="297" y="669" type="curve" smooth="yes"/>
    </contour>
  </outline>
</glyph>
<glyph name="nine" format="1">
  <advance width="606"/>
  <unicode hex="0039"/>
  <outline>
    <contour>
      <point x="155" y="670"/>
      <point x="67" y="587"/>
      <point x="67" y="456" type="curve" smooth="yes"/>
      <point x="67" y="325"/>
      <point x="155" y="242"/>
      <point x="288" y="242" type="curve" smooth="yes"/>
      <point x="362" y="242"/>
      <point x="449" y="273"/>
      <point x="469" y="367" type="curve"/>
      <point x="476" y="367" type="line"/>
      <point x="476" y="185"/>
      <point x="434" y="65"/>
      <point x="294" y="65" type="curve" smooth="yes"/>
      <point x="196" y="65"/>
      <point x="166" y="112"/>
      <point x="145" y="181" type="curve"/>
      <point x="66" y="139" type="line"/>
      <point x="104" y="42"/>
      <point x="173" y="-10"/>
      <point x="295" y="-10" type="curve" smooth="yes"/>
      <point x="461" y="-10"/>
      <point x="550" y="109"/>
      <point x="550" y="330" type="curve" smooth="yes"/>
      <point x="550" y="541"/>
      <point x="460" y="670"/>
      <point x="294" y="670" type="curve" smooth="yes"/>
    </contour>
    <contour>
      <point x="381" y="593"/>
      <point x="439" y="538"/>
      <point x="439" y="455" type="curve" smooth="yes"/>
      <point x="439" y="372"/>
      <point x="381" y="316"/>
      <point x="295" y="316" type="curve" smooth="yes"/>
      <point x="204" y="316"/>
      <point x="151" y="368"/>
      <point x="151" y="455" type="curve" smooth="yes"/>
      <point x="151" y="542"/>
      <point x="204" y="593"/>
      <point x="295" y="593" type="curve" smooth="yes"/>
    </contour>
  </outline>
</glyph>
<glyph name="equal" format="1">
  <advance width="620"/>
  <unicode hex="003D"/>
  <outline>
    <contour>
      <point x="72" y="428" type="line"/>
      <point x="72" y="353" type="line"/>
      <point x="548" y="353" type="line"/>
      <point x="548" y="428" type="line"/>
    </contour>
    <contour>
      <point x="72" y="228" type="line"/>
      <point x="72" y="153" type="line"/>
      <point x="548" y="153" type="line"/>
      <point x="548" y="228" type="line"/>
    </contour>
  </outline>
</glyph>
<glyph name="question" format="1">
  <advance width="545"/>
  <unicode hex="003F"/>
  <outline>
    <contour>
      <point x="141" y="670"/>
      <point x="55" y="602"/>
      <point x="33" y="500" type="curve"/>
      <point x="104" y="459" type="line"/>
      <point x="114" y="543"/>
      <point x="173" y="595"/>
      <point x="261" y="595" type="curve" smooth="yes"/>
      <point x="356" y="595"/>
      <point x="402" y="553"/>
      <point x="402" y="490" type="curve" smooth="yes"/>
      <point x="402" y="377"/>
      <point x="215" y="366"/>
      <point x="215" y="208" type="curve"/>
      <point x="298" y="208" type="line"/>
      <point x="298" y="326"/>
      <point x="486" y="328"/>
      <point x="486" y="500" type="curve" smooth="yes"/>
      <point x="486" y="605"/>
      <point x="400" y="670"/>
      <point x="267" y="670" type="curve" smooth="yes"/>
    </contour>
    <component base="period" xOffset="113"/>
  </outline>
</glyph>
<glyph name="B" format="1">
  <advance width="621"/>
  <unicode hex="0042"/>
  <outline>
    <contour>
      <point x="135" y="350" type="line"/>
      <point x="135" y="295" type="line"/>
      <point x="348" y="295" type="line" smooth="yes"/>
      <point x="442" y="295"/>
      <point x="488" y="255"/>
      <point x="488" y="185" type="curve" smooth="yes"/>
      <point x="488" y="115"/>
      <point x="442" y="75"/>
      <point x="348" y="75" type="curve" smooth="yes"/>
      <point x="135" y="75" type="line"/>
      <point x="135" y="0" type="line"/>
      <point x="367" y="0" type="line" smooth="yes"/>
      <point x="483" y="0"/>
      <point x="572" y="73"/>
      <point x="572" y="185" type="curve" smooth="yes"/>
      <point x="572" y="285"/>
      <point x="483" y="350"/>
      <point x="347" y="350" type="curve" smooth="yes"/>
    </contour>
    <contour>
      <point x="95" y="660" type="line"/>
      <point x="95" y="0" type="line"/>
      <point x="175" y="0" type="line"/>
      <point x="175" y="660" type="line"/>
    </contour>
    <contour>
      <point x="135" y="660" type="line"/>
      <point x="135" y="585" type="line"/>
      <point x="331" y="585" type="line" smooth="yes"/>
      <point x="425" y="585"/>
      <point x="471" y="550"/>
      <point x="471" y="478" type="curve" smooth="yes"/>
      <point x="471" y="405"/>
      <point x="425" y="370"/>
      <point x="331" y="370" type="curve" smooth="yes"/>
      <point x="135" y="370" type="line"/>
      <point x="135" y="315" type="line"/>
      <point x="330" y="315" type="line" smooth="yes"/>
      <point x="466" y="315"/>
      <point x="555" y="377"/>
      <point x="555" y="478" type="curve" smooth="yes"/>
      <point x="555" y="590"/>
      <point x="466" y="660"/>
      <point x="350" y="660" type="curve" smooth="yes"/>
    </contour>
  </outline>
</glyph>
<glyph name="C" format="1">
  <advance width="639"/>
  <unicode hex="0043"/>
  <outline>
    <contour>
      <point x="168" y="670"/>
      <point x="48" y="539"/>
      <point x="48" y="330" type="curve" smooth="yes"/>
      <point x="48" y="121"/>
      <point x="166" y="-10"/>
      <point x="354" y="-10" type="curve" smooth="yes"/>
      <point x="478" y="-10"/>
      <point x="578" y="56"/>
      <point x="620" y="169" type="curve"/>
      <point x="540" y="199" type="line"/>
      <point x="511" y="110"/>
      <point x="442" y="65"/>
      <point x="354" y="65" type="curve" smooth="yes"/>
      <point x="217" y="65"/>
      <point x="132" y="164"/>
      <point x="132" y="330" type="curve" smooth="yes"/>
      <point x="132" y="497"/>
      <point x="223" y="595"/>
      <point x="358" y="595" type="curve" smooth="yes"/>
      <point x="446" y="595"/>
      <point x="500" y="555"/>
      <point x="529" y="479" type="curve"/>
      <point x="608" y="516" type="line"/>
      <point x="566" y="616"/>
      <point x="480" y="670"/>
      <point x="352" y="670" type="curve" smooth="yes"/>
    </contour>
  </outline>
</glyph>
<glyph name="D" format="1">
  <advance width="688"/>
  <unicode hex="0044"/>
  <outline>
    <contour>
      <point x="135" y="660" type="line"/>
      <point x="135" y="585" type="line"/>
      <point x="316" y="585" type="line" smooth="yes"/>
      <point x="467" y="585"/>
      <point x="556" y="490"/>
      <point x="556" y="330" type="curve" smooth="yes"/>
      <point x="556" y="170"/>
      <point x="467" y="75"/>
      <point x="316" y="75" type="curve" smooth="yes"/>
      <point x="135" y="75" type="line"/>
      <point x="135" y="0" type="line"/>
      <point x="308" y="0" type="line" smooth="yes"/>
      <point x="515" y="0"/>
      <point x="640" y="118"/>
      <point x="640" y="330" type="curve" smooth="yes"/>
      <point x="640" y="542"/>
      <point x="515" y="660"/>
      <point x="308" y="660" type="curve" smooth="yes"/>
    </contour>
    <contour>
      <point x="95" y="660" type="line"/>
      <point x="95" y="0" type="line"/>
      <point x="175" y="0" type="line"/>
      <point x="175" y="660" type="line"/>
    </contour>
  </outline>
</glyph>
<glyph name="E" format="1">
  <advance width="625"/>
  <unicode hex="0045"/>
  <outline>
    <contour>
      <point x="95" y="660" type="line"/>
      <point x="95" y="0" type="line"/>
      <point x="175" y="0" type="line"/>
      <point x="175" y="660" type="line"/>
    </contour>
    <contour>
      <point x="137" y="75" type="line"/>
      <point x="137" y="0" type="line"/>
      <point x="573" y="0" type="line"/>
      <point x="573" y="75" type="line"/>
    </contour>
    <contour>
      <point x="137" y="372" type="line"/>
      <point x="137" y="297" type="line"/>
      <point x="473" y="297" type="line"/>
      <point x="473" y="372" type="line"/>
    </contour>
    <contour>
      <point x="137" y="660" type="line"/>
      <point x="137" y="585" type="line"/>
      <point x="558" y="585" type="line"/>
      <point x="558" y="660" type="line"/>
    </contour>
  </outline>
</glyph>
<glyph name="F" format="1">
  <advance width="595"/>
  <unicode hex="0046"/>
  <outline>
    <contour>
      <point x="95" y="660" type="line"/>
      <point x="95" y="0" type="line"/>
      <point x="175" y="0" type="line"/>
      <point x="175" y="660" type="line"/>
    </contour>
    <contour>
      <point x="137" y="372" type="line"/>
      <point x="137" y="297" type="line"/>
      <point x="473" y="297" type="line"/>
      <point x="473" y="372" type="line"/>
    </contour>
    <contour>
      <point x="137" y="660" type="line"/>
      <point x="137" y="585" type="line"/>
      <point x="557" y="585" type="line"/>
      <point x="557" y="660" type="line"/>
    </contour>
  </outline>
</glyph>
<glyph name="G" format="1">
  <advance width="704"/>
  <unicode hex="0047"/>
  <outline>
    <contour>
      <point x="166" y="670"/>
      <point x="48" y="539"/>
      <point x="48" y="330" type="curve" smooth="yes"/>
      <point x="48" y="121"/>
      <point x="166" y="-10"/>
      <point x="354" y="-10" type="curve" smooth="yes"/>
      <point x="501" y="-10"/>
      <point x="569" y="66"/>
      <point x="596" y="175" type="curve"/>
      <point x="560" y="186" type="line"/>
      <point x="528" y="111"/>
      <point x="464" y="65"/>
      <point x="354" y="65" type="curve" smooth="yes"/>
      <point x="207" y="65"/>
      <point x="132" y="164"/>
      <point x="132" y="330" type="curve" smooth="yes"/>
      <point x="132" y="496"/>
      <point x="217" y="595"/>
      <point x="351" y="595" type="curve" smooth="yes"/>
      <point x="443" y="595"/>
      <point x="502" y="553"/>
      <point x="533" y="478" type="curve"/>
      <point x="610" y="519" type="line"/>
      <point x="565" y="617"/>
      <point x="474" y="670"/>
      <point x="351" y="670" type="curve" smooth="yes"/>
    </contour>
    <contour>
      <point x="549" y="333" type="line"/>
      <point x="549" y="100" type="line"/>
      <point x="572" y="0" type="line"/>
      <point x="625" y="0" type="line"/>
      <point x="625" y="98" type="line"/>
      <point x="625" y="333" type="line"/>
    </contour>
    <contour>
      <point x="342" y="333" type="line"/>
      <point x="342" y="258" type="line"/>
      <point x="625" y="258" type="line"/>
      <point x="625" y="333" type="line"/>
    </contour>
  </outline>
</glyph>
<glyph name="H" format="1">
  <advance width="708"/>
  <unicode hex="0048"/>
  <outline>
    <contour>
      <point x="533" y="660" type="line"/>
      <point x="533" y="0" type="line"/>
      <point x="613" y="0" type="line"/>
      <point x="613" y="660" type="line"/>
    </contour>
    <contour>
      <point x="95" y="660" type="line"/>
      <point x="95" y="0" type="line"/>
      <point x="175" y="0" type="line"/>
      <point x="175" y="660" type="line"/>
    </contour>
    <contour>
      <point x="137" y="372" type="line"/>
      <point x="137" y="297" type="line"/>
      <point x="570" y="297" type="line"/>
      <point x="570" y="372" type="line"/>
    </contour>
  </outline>
</glyph>
<glyph name="I" format="1">
  <advance width="270"/>
  <unicode hex="0049"/>
  <outline>
    <contour>
      <point x="95" y="660" type="line"/>
      <point x="95" y="0" type="line"/>
      <point x="175" y="0" type="line"/>
      <point x="175" y="660" type="line"/>
    </contour>
  </outline>
</glyph>
<glyph name="J" format="1">
  <advance width="569"/>
  <unicode hex="004A"/>
  <outline>
    <contour>
      <point x="387" y="660" type="line"/>
      <point x="387" y="246" type="line" smooth="yes"/>
      <point x="387" y="128"/>
      <point x="353" y="65"/>
      <point x="240" y="65" type="curve" smooth="yes"/>
      <point x="156" y="65"/>
      <point x="103" y="129"/>
      <point x="122" y="232" type="curve"/>
      <point x="45" y="219" type="line"/>
      <point x="20" y="77"/>
      <point x="96" y="-10"/>
      <point x="243" y="-10" type="curve" smooth="yes"/>
      <point x="408" y="-10"/>
      <point x="466" y="83"/>
      <point x="466" y="226" type="curve" smooth="yes"/>
      <point x="467" y="660" type="line"/>
    </contour>
  </outline>
</glyph>
<glyph name="K" format="1">
  <advance width="653"/>
  <unicode hex="004B"/>
  <outline>
    <contour>
      <point x="507" y="660" type="line"/>
      <point x="135" y="279" type="line"/>
      <point x="135" y="171" type="line"/>
      <point x="612" y="660" type="line"/>
    </contour>
    <contour>
      <point x="95" y="660" type="line"/>
      <point x="95" y="0" type="line"/>
      <point x="175" y="0" type="line"/>
      <point x="175" y="660" type="line"/>
    </contour>
    <contour>
      <point x="266" y="371" type="line"/>
      <point x="519" y="0" type="line"/>
      <point x="615" y="0" type="line"/>
      <point x="332" y="416" type="line"/>
    </contour>
  </outline>
</glyph>
<glyph name="L" format="1">
  <advance width="597"/>
  <unicode hex="004C"/>
  <outline>
    <contour>
      <point x="110" y="660" type="line"/>
      <point x="110" y="0" type="line"/>
      <point x="190" y="0" type="line"/>
      <point x="190" y="660" type="line"/>
    </contour>
    <contour>
      <point x="152" y="75" type="line"/>
      <point x="152" y="0" type="line"/>
      <point x="568" y="0" type="line"/>
      <point x="568" y="75" type="line"/>
    </contour>
    <contour>
      <point x="150" y="660" type="move" name="top"/>
    </contour>
    <contour>
      <point x="364" y="0" type="move" name="bottom"/>
    </contour>
    <contour>
      <point x="312" y="730" type="move" name="topright"/>
    </contour>
  </outline>
</glyph>
<glyph name="M" format="1">
  <advance width="828"/>
  <unicode hex="004D"/>
  <outline>
    <contour>
      <point x="614" y="660" type="line"/>
      <point x="373" y="0" type="line"/>
      <point x="455" y="0" type="line"/>
      <point x="695" y="660" type="line"/>
    </contour>
    <contour>
      <point x="95" y="660" type="line"/>
      <point x="95" y="415" type="line"/>
      <point x="95" y="0" type="line"/>
      <point x="175" y="0" type="line"/>
      <point x="175" y="415" type="line"/>
      <point x="160" y="660" type="line"/>
    </contour>
    <contour>
      <point x="134" y="660" type="line"/>
      <point x="373" y="0" type="line"/>
      <point x="455" y="0" type="line"/>
      <point x="215" y="660" type="line"/>
    </contour>
    <contour>
      <point x="668" y="660" type="line"/>
      <point x="653" y="415" type="line"/>
      <point x="653" y="0" type="line"/>
      <point x="733" y="0" type="line"/>
      <point x="733" y="415" type="line"/>
      <point x="733" y="660" type="line"/>
    </contour>
  </outline>
</glyph>
<glyph name="N" format="1">
  <advance width="708"/>
  <unicode hex="004E"/>
  <outline>
    <contour>
      <point x="100" y="660" type="line"/>
      <point x="518" y="0" type="line"/>
      <point x="608" y="0" type="line"/>
      <point x="190" y="660" type="line"/>
    </contour>
    <contour>
      <point x="95" y="660" type="line"/>
      <point x="95" y="466" type="line"/>
      <point x="95" y="0" type="line"/>
      <point x="175" y="0" type="line"/>
      <point x="175" y="466" type="line"/>
      <point x="165" y="660" type="line"/>
    </contour>
    <contour>
      <point x="533" y="660" type="line"/>
      <point x="533" y="194" type="line"/>
      <point x="543" y="0" type="line"/>
      <point x="613" y="0" type="line"/>
      <point x="613" y="194" type="line"/>
      <point x="613" y="660" type="line"/>
    </contour>
  </outline>
</glyph>
<glyph name="O" format="1">
  <advance width="708"/>
  <unicode hex="004F"/>
  <outline>
    <contour>
      <point x="166" y="670"/>
      <point x="48" y="539"/>
      <point x="48" y="330" type="curve" smooth="yes"/>
      <point x="48" y="121"/>
      <point x="166" y="-10"/>
      <point x="354" y="-10" type="curve" smooth="yes"/>
      <point x="542" y="-10"/>
      <point x="660" y="121"/>
      <point x="660" y="330" type="curve" smooth="yes"/>
      <point x="660" y="539"/>
      <point x="542" y="670"/>
      <point x="354" y="670" type="curve" smooth="yes"/>
    </contour>
    <contour>
      <point x="491" y="595"/>
      <point x="576" y="496"/>
      <point x="576" y="330" type="curve" smooth="yes"/>
      <point x="576" y="164"/>
      <point x="491" y="65"/>
      <point x="354" y="65" type="curve" smooth="yes"/>
      <point x="217" y="65"/>
      <point x="132" y="164"/>
      <point x="132" y="330" type="curve" smooth="yes"/>
      <point x="132" y="496"/>
      <point x="217" y="595"/>
      <point x="354" y="595" type="curve" smooth="yes"/>
    </contour>
  </outline>
</glyph>
<glyph name="P" format="1">
  <advance width="584"/>
  <unicode hex="0050"/>
  <outline>
    <contour>
      <point x="135" y="660" type="line"/>
      <point x="135" y="585" type="line"/>
      <point x="316" y="585" type="line" smooth="yes"/>
      <point x="420" y="585"/>
      <point x="466" y="541"/>
      <point x="466" y="459" type="curve" smooth="yes"/>
      <point x="466" y="377"/>
      <point x="420" y="333"/>
      <point x="316" y="333" type="curve" smooth="yes"/>
      <point x="135" y="333" type="line"/>
      <point x="135" y="258" type="line"/>
      <point x="328" y="258" type="line" smooth="yes"/>
      <point x="461" y="258"/>
      <point x="550" y="335"/>
      <point x="550" y="459" type="curve" smooth="yes"/>
      <point x="550" y="583"/>
      <point x="461" y="660"/>
      <point x="328" y="660" type="curve" smooth="yes"/>
    </contour>
    <contour>
      <point x="95" y="660" type="line"/>
      <point x="95" y="0" type="line"/>
      <point x="175" y="0" type="line"/>
      <point x="175" y="660" type="line"/>
    </contour>
  </outline>
</glyph>
<glyph name="Q" format="1">
  <advance width="772"/>
  <unicode hex="0051"/>
  <outline>
    <contour>
      <point x="336" y="20" type="line"/>
      <point x="334" y="-145"/>
      <point x="421" y="-193"/>
      <point x="534" y="-195" type="curve" smooth="yes"/>
      <point x="584" y="-196"/>
      <point x="631" y="-182"/>
      <point x="661" y="-168" type="curve"/>
      <point x="661" y="-92" type="line"/>
      <point x="629" y="-113"/>
      <point x="597" y="-122"/>
      <point x="539" y="-122" type="curve" smooth="yes"/>
      <point x="466" y="-122"/>
      <point x="400" y="-92"/>
      <point x="407" y="38" type="curve"/>
    </contour>
    <component base="O"/>
  </outline>
</glyph>
<glyph name="R" format="1">
  <advance width="659"/>
  <unicode hex="0052"/>
  <outline>
    <contour>
      <point x="150" y="660" type="line"/>
      <point x="150" y="585" type="line"/>
      <point x="359" y="585" type="line" smooth="yes"/>
      <point x="453" y="585"/>
      <point x="499" y="546"/>
      <point x="499" y="467" type="curve" smooth="yes"/>
      <point x="499" y="388"/>
      <point x="453" y="349"/>
      <point x="359" y="349" type="curve" smooth="yes"/>
      <point x="150" y="349" type="line"/>
      <point x="150" y="274" type="line"/>
      <point x="360" y="274" type="line" smooth="yes"/>
      <point x="494" y="274"/>
      <point x="583" y="348"/>
      <point x="583" y="467" type="curve" smooth="yes"/>
      <point x="583" y="586"/>
      <point x="494" y="660"/>
      <point x="360" y="660" type="curve" smooth="yes"/>
    </contour>
    <contour>
      <point x="110" y="660" type="line"/>
      <point x="110" y="0" type="line"/>
      <point x="190" y="0" type="line"/>
      <point x="190" y="660" type="line"/>
    </contour>
    <contour>
      <point x="338" y="289" type="line"/>
      <point x="528" y="0" type="line"/>
      <point x="623" y="0" type="line"/>
      <point x="405" y="333" type="line"/>
    </contour>
    <contour>
      <point x="334" y="660" type="move" name="top"/>
    </contour>
    <contour>
      <point x="367" y="0" type="move" name="bottom"/>
    </contour>
  </outline>
</glyph>
<glyph name="S" format="1">
  <advance width="588"/>
  <unicode hex="0053"/>
  <outline>
    <contour>
      <point x="139" y="670"/>
      <point x="46" y="580"/>
      <point x="46" y="474" type="curve" smooth="yes"/>
      <point x="46" y="370"/>
      <point x="115" y="321"/>
      <point x="268" y="293" type="curve" smooth="yes"/>
      <point x="441" y="260"/>
      <point x="470" y="230"/>
      <point x="470" y="171" type="curve" smooth="yes"/>
      <point x="470" y="103"/>
      <point x="402" y="65"/>
      <point x="300" y="65" type="curve" smooth="yes"/>
      <point x="205" y="65"/>
      <point x="114" y="123"/>
      <point x="101" y="203" type="curve"/>
      <point x="20" y="161" type="line"/>
      <point x="59" y="50"/>
      <point x="158" y="-10"/>
      <point x="298" y="-10" type="curve" smooth="yes"/>
      <point x="452" y="-10"/>
      <point x="553" y="65"/>
      <point x="553" y="178" type="curve" smooth="yes"/>
      <point x="553" y="282"/>
      <point x="489" y="333"/>
      <point x="324" y="363" type="curve" smooth="yes"/>
      <point x="167" y="392"/>
      <point x="130" y="423"/>
      <point x="130" y="483" type="curve" smooth="yes"/>
      <point x="130" y="546"/>
      <point x="188" y="595"/>
      <point x="293" y="595" type="curve" smooth="yes"/>
      <point x="390" y="595"/>
      <point x="437" y="560"/>
      <point x="477" y="473" type="curve"/>
      <point x="547" y="530" type="line"/>
      <point x="493" y="625"/>
      <point x="423" y="670"/>
      <point x="292" y="670" type="curve" smooth="yes"/>
    </contour>
  </outline>
</glyph>
<glyph name="T" format="1">
  <advance width="625"/>
  <unicode hex="0054"/>
  <outline>
    <contour>
      <point x="273" y="660" type="line"/>
      <point x="273" y="0" type="line"/>
      <point x="353" y="0" type="line"/>
      <point x="353" y="660" type="line"/>
    </contour>
    <contour>
      <point x="42" y="660" type="line"/>
      <point x="42" y="585" type="line"/>
      <point x="583" y="585" type="line"/>
      <point x="583" y="660" type="line"/>
    </contour>
  </outline>
</glyph>
<glyph name="U" format="1">
  <advance width="692"/>
  <unicode hex="0055"/>
  <outline>
    <contour>
      <point x="525" y="660" type="line"/>
      <point x="525" y="266" type="line" smooth="yes"/>
      <point x="525" y="128"/>
      <point x="469" y="65"/>
      <point x="346" y="65" type="curve" smooth="yes"/>
      <point x="223" y="65"/>
      <point x="167" y="128"/>
      <point x="167" y="266" type="curve" smooth="yes"/>
      <point x="167" y="660" type="line"/>
      <point x="87" y="660" type="line"/>
      <point x="87" y="246" type="line" smooth="yes"/>
      <point x="87" y="76"/>
      <point x="180" y="-10"/>
      <point x="346" y="-10" type="curve" smooth="yes"/>
      <point x="513" y="-10"/>
      <point x="605" y="76"/>
      <point x="605" y="246" type="curve" smooth="yes"/>
      <point x="605" y="660" type="line"/>
    </contour>
  </outline>
</glyph>
<glyph name="V" format="1">
  <advance width="664"/>
  <unicode hex="0056"/>
  <outline>
    <contour>
      <point x="542" y="660" type="line"/>
      <point x="299" y="0" type="line"/>
      <point x="380" y="0" type="line"/>
      <point x="628" y="660" type="line"/>
    </contour>
    <contour>
      <point x="36" y="660" type="line"/>
      <point x="285" y="0" type="line"/>
      <point x="365" y="0" type="line"/>
      <point x="122" y="660" type="line"/>
    </contour>
  </outline>
</glyph>
<glyph name="W" format="1">
  <advance width="980"/>
  <unicode hex="0057"/>
  <outline>
    <contour>
      <point x="45" y="660" type="line"/>
      <point x="240" y="0" type="line"/>
      <point x="314" y="0" type="line"/>
      <point x="131" y="660" type="line"/>
    </contour>
    <contour>
      <point x="446" y="660" type="line"/>
      <point x="268" y="0" type="line"/>
      <point x="339" y="0" type="line"/>
      <point x="518" y="660" type="line"/>
    </contour>
    <contour>
      <point x="462" y="660" type="line"/>
      <point x="642" y="0" type="line"/>
      <point x="716" y="0" type="line"/>
      <point x="538" y="660" type="line"/>
    </contour>
    <contour>
      <point x="854" y="660" type="line"/>
      <point x="671" y="0" type="line"/>
      <point x="741" y="0" type="line"/>
      <point x="935" y="660" type="line"/>
    </contour>
  </outline>
</glyph>
<glyph name="X" format="1">
  <advance width="571"/>
  <unicode hex="0058"/>
  <outline>
    <contour>
      <point x="466" y="660" type="line"/>
      <point x="279" y="375" type="line"/>
      <point x="272" y="375" type="line"/>
      <point x="14" y="0" type="line"/>
      <point x="107" y="0" type="line"/>
      <point x="309" y="308" type="line"/>
      <point x="316" y="308" type="line"/>
      <point x="551" y="660" type="line"/>
    </contour>
    <contour>
      <point x="34" y="660" type="line"/>
      <point x="465" y="0" type="line"/>
      <point x="558" y="0" type="line"/>
      <point x="129" y="660" type="line"/>
    </contour>
  </outline>
</glyph>
<glyph name="Y" format="1">
  <advance width="604"/>
  <unicode hex="0059"/>
  <outline>
    <contour>
      <point x="483" y="660" type="line"/>
      <point x="276" y="294" type="line"/>
      <point x="342" y="258" type="line"/>
      <point x="578" y="660" type="line"/>
    </contour>
    <contour>
      <point x="276" y="294" type="line"/>
      <point x="262" y="258" type="line"/>
      <point x="262" y="0" type="line"/>
      <point x="342" y="0" type="line"/>
      <point x="342" y="258" type="line"/>
      <point x="328" y="294" type="line"/>
    </contour>
    <contour>
      <point x="26" y="660" type="line"/>
      <point x="262" y="258" type="line"/>
      <point x="328" y="294" type="line"/>
      <point x="121" y="660" type="line"/>
    </contour>
  </outline>
</glyph>
<glyph name="Z" format="1">
  <advance width="591"/>
  <unicode hex="005A"/>
  <outline>
    <contour>
      <point x="46" y="75" type="line"/>
      <point x="110" y="25" type="line"/>
      <point x="552" y="585" type="line"/>
      <point x="489" y="636" type="line"/>
    </contour>
    <contour>
      <point x="46" y="75" type="line"/>
      <point x="46" y="0" type="line"/>
      <point x="565" y="0" type="line"/>
      <point x="565" y="75" type="line"/>
    </contour>
    <contour>
      <point x="56" y="660" type="line"/>
      <point x="56" y="585" type="line"/>
      <point x="552" y="585" type="line"/>
      <point x="552" y="660" type="line"/>
    </contour>
  </outline>
</glyph>
<glyph name="bracketleft" format="1">
  <advance width="408"/>
  <unicode hex="005B"/>
  <outline>
    <contour>
      <point x="157" y="730" type="line"/>
      <point x="157" y="665" type="line"/>
      <point x="343" y="665" type="line"/>
      <point x="343" y="730" type="line"/>
    </contour>
    <contour>
      <point x="190" y="730" type="line"/>
      <point x="120" y="730" type="line"/>
      <point x="120" y="-168" type="line"/>
      <point x="190" y="-168" type="line"/>
    </contour>
    <contour>
      <point x="343" y="-103" type="line"/>
      <point x="157" y="-103" type="line"/>
      <point x="157" y="-168" type="line"/>
      <point x="343" y="-168" type="line"/>
    </contour>
  </outline>
</glyph>
<glyph name="grave" format="1">
  <advance width="500"/>
  <unicode hex="0060"/>
  <outline>
    <contour>
      <point x="130" y="750" type="line"/>
      <point x="230" y="583" type="line"/>
      <point x="290" y="583" type="line"/>
      <point x="218" y="750" type="line"/>
    </contour>
    <contour>
      <point x="250" y="500" type="move" name="_top"/>
    </contour>
  </outline>
</glyph>
<glyph name="a" format="1">
  <advance width="557"/>
  <unicode hex="0061"/>
  <outline>
    <contour>
      <point x="168" y="510"/>
      <point x="89" y="462"/>
      <point x="63" y="388" type="curve"/>
      <point x="125" y="344" type="line"/>
      <point x="152" y="407"/>
      <point x="197" y="440"/>
      <point x="263" y="440" type="curve" smooth="yes"/>
      <point x="338" y="440"/>
      <point x="382" y="396"/>
      <point x="382" y="330" type="curve" smooth="yes"/>
      <point x="382" y="102" type="line" smooth="yes"/>
      <point x="382" y="16"/>
      <point x="416" y="-10"/>
      <point x="475" y="-10" type="curve" smooth="yes"/>
      <point x="500" y="-10"/>
      <point x="521" y="-5"/>
      <point x="535" y="0" type="curve"/>
      <point x="540" y="63" type="line"/>
      <point x="528" y="60"/>
      <point x="513" y="58"/>
      <point x="500" y="58" type="curve" smooth="yes"/>
      <point x="472" y="58"/>
      <point x="462" y="70"/>
      <point x="462" y="94" type="curve" smooth="yes"/>
      <point x="462" y="340" type="line" smooth="yes"/>
      <point x="462" y="456"/>
      <point x="373" y="510"/>
      <point x="259" y="510" type="curve" smooth="yes"/>
    </contour>
    <contour>
      <point x="257" y="283" type="line" smooth="yes"/>
      <point x="124" y="257"/>
      <point x="54" y="199"/>
      <point x="54" y="124" type="curve" smooth="yes"/>
      <point x="54" y="24"/>
      <point x="122" y="-10"/>
      <point x="230" y="-10" type="curve" smooth="yes"/>
      <point x="311" y="-10"/>
      <point x="404" y="41"/>
      <point x="404" y="124" type="curve"/>
      <point x="382" y="149" type="line"/>
      <point x="382" y="102"/>
      <point x="308" y="60"/>
      <point x="228" y="60" type="curve" smooth="yes"/>
      <point x="173" y="60"/>
      <point x="137" y="83"/>
      <point x="137" y="124" type="curve" smooth="yes"/>
      <point x="137" y="171"/>
      <point x="190" y="200"/>
      <point x="278" y="219" type="curve" smooth="yes"/>
      <point x="428" y="251" type="line"/>
      <point x="417" y="316" type="line"/>
    </contour>
    <contour>
      <point x="535" y="0" type="move" name="ogonek"/>
    </contour>
    <contour>
      <point x="273" y="500" type="move" name="top"/>
    </contour>
  </outline>
</glyph>
<glyph name="b" format="1">
  <advance width="619"/>
  <unicode hex="0062"/>
  <outline>
    <contour>
      <point x="95" y="730" type="line"/>
      <point x="95" y="117" type="line"/>
      <point x="95" y="0" type="line"/>
      <point x="160" y="0" type="line"/>
      <point x="175" y="127" type="line"/>
      <point x="175" y="730" type="line"/>
    </contour>
    <component base="bowl" xOffset="649" xScale="-1"/>
  </outline>
</glyph>
<glyph name="c" format="1">
  <advance width="576"/>
  <unicode hex="0063"/>
  <outline>
    <contour>
      <point x="164" y="510"/>
      <point x="73" y="412"/>
      <point x="73" y="250" type="curve" smooth="yes"/>
      <point x="73" y="88"/>
      <point x="164" y="-10"/>
      <point x="315" y="-10" type="curve" smooth="yes"/>
      <point x="421" y="-10"/>
      <point x="493" y="46"/>
      <point x="525" y="138" type="curve"/>
      <point x="453" y="163" type="line"/>
      <point x="433" y="97"/>
      <point x="386" y="60"/>
      <point x="313" y="60" type="curve" smooth="yes"/>
      <point x="213" y="60"/>
      <point x="153" y="131"/>
      <point x="153" y="250" type="curve" smooth="yes"/>
      <point x="153" y="369"/>
      <point x="213" y="440"/>
      <point x="313" y="440" type="curve" smooth="yes"/>
      <point x="378" y="440"/>
      <point x="423" y="404"/>
      <point x="444" y="341" type="curve"/>
      <point x="520" y="377" type="line"/>
      <point x="485" y="459"/>
      <point x="418" y="510"/>
      <point x="315" y="510" type="curve" smooth="yes"/>
    </contour>
    <contour>
      <point x="315" y="500" type="move" name="top"/>
    </contour>
    <contour>
      <point x="315" y="0" type="move" name="bottom"/>
    </contour>
  </outline>
</glyph>
<glyph name="d" format="1">
  <advance width="619"/>
  <unicode hex="0064"/>
  <outline>
    <contour>
      <point x="444" y="730" type="line"/>
      <point x="444" y="127" type="line"/>
      <point x="459" y="0" type="line"/>
      <point x="524" y="0" type="line"/>
      <point x="524" y="117" type="line"/>
      <point x="524" y="730" type="line"/>
    </contour>
    <component base="bowl" xOffset="-30"/>
    <contour>
      <point x="310" y="250" type="move" name="center"/>
    </contour>
    <contour>
      <point x="599" y="500" type="move" name="topright"/>
    </contour>
  </outline>
</glyph>
<glyph name="e" format="1">
  <advance width="595"/>
  <unicode hex="0065"/>
  <outline>
    <contour>
      <point x="158" y="510"/>
      <point x="73" y="412"/>
      <point x="73" y="250" type="curve" smooth="yes"/>
      <point x="73" y="88"/>
      <point x="164" y="-10"/>
      <point x="315" y="-10" type="curve" smooth="yes"/>
      <point x="423" y="-10"/>
      <point x="485" y="31"/>
      <point x="523" y="99" type="curve"/>
      <point x="456" y="134" type="line"/>
      <point x="438" y="86"/>
      <point x="388" y="60"/>
      <point x="315" y="60" type="curve" smooth="yes"/>
      <point x="214" y="60"/>
      <point x="151" y="131"/>
      <point x="151" y="250" type="curve" smooth="yes"/>
      <point x="151" y="369"/>
      <point x="208" y="440"/>
      <point x="309" y="440" type="curve" smooth="yes"/>
      <point x="404" y="440"/>
      <point x="462" y="368"/>
      <point x="458" y="255" type="curve" smooth="yes"/>
      <point x="457" y="220" type="line"/>
      <point x="534" y="220" type="line"/>
      <point x="534" y="255" type="line" smooth="yes"/>
      <point x="534" y="412"/>
      <point x="454" y="510"/>
      <point x="309" y="510" type="curve" smooth="yes"/>
    </contour>
    <contour>
      <point x="125" y="291" type="line"/>
      <point x="125" y="220" type="line"/>
      <point x="497" y="220" type="line"/>
      <point x="497" y="291" type="line"/>
    </contour>
    <contour>
      <point x="459" y="0" type="move" name="ogonek"/>
    </contour>
    <contour>
      <point x="315" y="0" type="move" name="bottom"/>
    </contour>
    <contour>
      <point x="306" y="500" type="move" name="top"/>
    </contour>
  </outline>
</glyph>
<glyph name="f" format="1">
  <advance width="424"/>
  <unicode hex="0066"/>
  <outline>
    <contour>
      <point x="205" y="735"/>
      <point x="148" y="673"/>
      <point x="148" y="584" type="curve" smooth="yes"/>
      <point x="148" y="0" type="line"/>
      <point x="228" y="0" type="line"/>
      <point x="228" y="576" type="line" smooth="yes"/>
      <point x="228" y="637"/>
      <point x="264" y="662"/>
      <point x="305" y="662" type="curve" smooth="yes"/>
      <point x="339" y="662"/>
      <point x="358" y="649"/>
      <point x="375" y="629" type="curve"/>
      <point x="394" y="702" type="line"/>
      <point x="374" y="722"/>
      <point x="352" y="735"/>
      <point x="298" y="735" type="curve" smooth="yes"/>
    </contour>
    <contour>
      <point x="48" y="500" type="line"/>
      <point x="48" y="431" type="line"/>
      <point x="388" y="431" type="line"/>
      <point x="388" y="500" type="line"/>
    </contour>
  </outline>
</glyph>
<glyph name="g" format="1">
  <advance width="577"/>
  <unicode hex="0067"/>
  <outline>
    <contour>
      <point x="126" y="207"/>
      <point x="73" y="171"/>
      <point x="73" y="110" type="curve" smooth="yes"/>
      <point x="73" y="35"/>
      <point x="162" y="-5"/>
      <point x="223" y="-5" type="curve" smooth="yes"/>
      <point x="357" y="-5" type="line" smooth="yes"/>
      <point x="432" y="-5"/>
      <point x="456" y="-28"/>
      <point x="456" y="-64" type="curve" smooth="yes"/>
      <point x="456" y="-108"/>
      <point x="398" y="-148"/>
      <point x="292" y="-148" type="curve" smooth="yes"/>
      <point x="182" y="-148"/>
      <point x="127" y="-116"/>
      <point x="127" y="-67" type="curve" smooth="yes"/>
      <point x="127" y="-29"/>
      <point x="160" y="-5"/>
      <point x="223" y="-5" type="curve"/>
      <point x="199" y="29" type="line"/>
      <point x="111" y="29"/>
      <point x="50" y="-17"/>
      <point x="50" y="-83" type="curve" smooth="yes"/>
      <point x="50" y="-158"/>
      <point x="125" y="-215"/>
      <point x="283" y="-215" type="curve" smooth="yes"/>
      <point x="418" y="-215"/>
      <point x="534" y="-154"/>
      <point x="534" y="-55" type="curve" smooth="yes"/>
      <point x="534" y="17"/>
      <point x="474" y="64"/>
      <point x="379" y="64" type="curve" smooth="yes"/>
      <point x="249" y="64" type="line" smooth="yes"/>
      <point x="184" y="64"/>
      <point x="148" y="87"/>
      <point x="148" y="124" type="curve" smooth="yes"/>
      <point x="148" y="158"/>
      <point x="177" y="179"/>
      <point x="238" y="187" type="curve"/>
      <point x="195" y="214" type="line"/>
    </contour>
    <contour>
      <point x="160" y="510"/>
      <point x="75" y="440"/>
      <point x="75" y="341" type="curve" smooth="yes"/>
      <point x="75" y="242"/>
      <point x="148" y="172"/>
      <point x="280" y="172" type="curve" smooth="yes"/>
      <point x="400" y="172"/>
      <point x="485" y="242"/>
      <point x="485" y="341" type="curve" smooth="yes"/>
      <point x="485" y="440"/>
      <point x="400" y="510"/>
      <point x="280" y="510" type="curve" smooth="yes"/>
    </contour>
    <contour>
      <point x="349" y="445"/>
      <point x="402" y="403"/>
      <point x="402" y="341" type="curve" smooth="yes"/>
      <point x="402" y="279"/>
      <point x="349" y="237"/>
      <point x="280" y="237" type="curve" smooth="yes"/>
      <point x="211" y="237"/>
      <point x="158" y="279"/>
      <point x="158" y="341" type="curve" smooth="yes"/>
      <point x="158" y="403"/>
      <point x="211" y="445"/>
      <point x="280" y="445" type="curve" smooth="yes"/>
    </contour>
    <contour>
      <point x="454" y="580"/>
      <point x="400" y="541"/>
      <point x="377" y="460" type="curve"/>
      <point x="415" y="446" type="line"/>
      <point x="429" y="489"/>
      <point x="458" y="504"/>
      <point x="535" y="504" type="curve"/>
      <point x="535" y="580" type="line"/>
    </contour>
    <contour>
      <point x="284" y="500" type="move" name="top"/>
    </contour>
  </outline>
</glyph>
<glyph name="h" format="1">
  <advance width="620"/>
  <unicode hex="0068"/>
  <outline>
    <contour>
      <point x="233" y="510"/>
      <point x="162" y="457"/>
      <point x="138" y="327" type="curve"/>
      <point x="174" y="316" type="line"/>
      <point x="203" y="403"/>
      <point x="261" y="440"/>
      <point x="329" y="440" type="curve" smooth="yes"/>
      <point x="398" y="440"/>
      <point x="452" y="403"/>
      <point x="452" y="292" type="curve" smooth="yes"/>
      <point x="452" y="0" type="line"/>
      <point x="532" y="0" type="line"/>
      <point x="532" y="320" type="line" smooth="yes"/>
      <point x="532" y="449"/>
      <point x="434" y="510"/>
      <point x="337" y="510" type="curve" smooth="yes"/>
    </contour>
    <contour>
      <point x="94" y="730" type="line"/>
      <point x="94" y="0" type="line"/>
      <point x="174" y="0" type="line"/>
      <point x="174" y="730" type="line"/>
    </contour>
  </outline>
</glyph>
<glyph name="i" format="1">
  <advance width="270"/>
  <unicode hex="0069"/>
  <outline>
    <contour>
      <point x="95" y="500" type="line"/>
      <point x="95" y="0" type="line"/>
      <point x="175" y="0" type="line"/>
      <point x="175" y="500" type="line"/>
    </contour>
    <component base="dotaccent" xOffset="-115"/>
  </outline>
</glyph>
<glyph name="j" format="1">
  <advance width="261"/>
  <unicode hex="006A"/>
  <outline>
    <contour>
      <point x="91" y="500" type="line"/>
      <point x="91" y="-43" type="line" smooth="yes"/>
      <point x="91" y="-108"/>
      <point x="61" y="-137"/>
      <point x="18" y="-137" type="curve" smooth="yes"/>
      <point x="-22" y="-137"/>
      <point x="-46" y="-122"/>
      <point x="-68" y="-104" type="curve"/>
      <point x="-91" y="-184" type="line"/>
      <point x="-64" y="-201"/>
      <point x="-29" y="-215"/>
      <point x="16" y="-215" type="curve" smooth="yes"/>
      <point x="80" y="-215"/>
      <point x="171" y="-189"/>
      <point x="171" y="-51" type="curve" smooth="yes"/>
      <point x="171" y="500" type="line"/>
    </contour>
    <component base="dotaccent" xOffset="-119"/>
  </outline>
</glyph>
<glyph name="k" format="1">
  <advance width="553"/>
  <unicode hex="006B"/>
  <outline>
    <contour>
      <point x="434" y="500" type="line"/>
      <point x="135" y="201" type="line"/>
      <point x="135" y="101" type="line"/>
      <point x="534" y="500" type="line"/>
    </contour>
    <contour>
      <point x="95" y="730" type="line"/>
      <point x="95" y="0" type="line"/>
      <point x="175" y="0" type="line"/>
      <point x="175" y="730" type="line"/>
    </contour>
    <contour>
      <point x="258" y="280" type="line"/>
      <point x="449" y="0" type="line"/>
      <point x="546" y="0" type="line"/>
      <point x="325" y="325" type="line"/>
    </contour>
  </outline>
</glyph>
<glyph name="l" format="1">
  <advance width="315"/>
  <unicode hex="006C"/>
  <outline>
    <contour>
      <point x="95" y="730" type="line"/>
      <point x="95" y="124" type="line" smooth="yes"/>
      <point x="95" y="29"/>
      <point x="134" y="-10"/>
      <point x="215" y="-10" type="curve" smooth="yes"/>
      <point x="241" y="-10"/>
      <point x="268" y="-5"/>
      <point x="289" y="4" type="curve"/>
      <point x="302" y="81" type="line"/>
      <point x="277" y="72"/>
      <point x="260" y="67"/>
      <point x="229" y="67" type="curve" smooth="yes"/>
      <point x="194" y="67"/>
      <point x="175" y="94"/>
      <point x="175" y="134" type="curve" smooth="yes"/>
      <point x="175" y="730" type="line"/>
    </contour>
  </outline>
</glyph>
<glyph name="m" format="1">
  <advance width="954"/>
  <unicode hex="006D"/>
  <outline>
    <contour>
      <point x="594" y="510"/>
      <point x="529" y="470"/>
      <point x="480" y="376" type="curve"/>
      <point x="520" y="316" type="line"/>
      <point x="548" y="401"/>
      <point x="610" y="440"/>
      <point x="668" y="440" type="curve" smooth="yes"/>
      <point x="734" y="440"/>
      <point x="786" y="403"/>
      <point x="786" y="312" type="curve" smooth="yes"/>
      <point x="786" y="0" type="line"/>
      <point x="866" y="0" type="line"/>
      <point x="866" y="320" type="line" smooth="yes"/>
      <point x="866" y="452"/>
      <point x="771" y="510"/>
      <point x="675" y="510" type="curve" smooth="yes"/>
    </contour>
    <contour>
      <point x="94" y="500" type="line"/>
      <point x="94" y="383" type="line"/>
      <point x="94" y="0" type="line"/>
      <point x="174" y="0" type="line"/>
      <point x="174" y="383" type="line"/>
      <point x="159" y="500" type="line"/>
    </contour>
    <contour>
      <point x="234" y="510"/>
      <point x="158" y="453"/>
      <point x="138" y="327" type="curve"/>
      <point x="174" y="316" type="line"/>
      <point x="203" y="399"/>
      <point x="259" y="440"/>
      <point x="322" y="440" type="curve" smooth="yes"/>
      <point x="388" y="440"/>
      <point x="440" y="403"/>
      <point x="440" y="312" type="curve" smooth="yes"/>
      <point x="440" y="0" type="line"/>
      <point x="520" y="0" type="line"/>
      <point x="520" y="320" type="line" smooth="yes"/>
      <point x="520" y="452"/>
      <point x="425" y="510"/>
      <point x="329" y="510" type="curve" smooth="yes"/>
    </contour>
  </outline>
</glyph>
<glyph name="n" format="1">
  <advance width="631"/>
  <unicode hex="006E"/>
  <outline>
    <contour>
      <point x="234" y="510"/>
      <point x="163" y="457"/>
      <point x="139" y="327" type="curve"/>
      <point x="175" y="316" type="line"/>
      <point x="204" y="403"/>
      <point x="262" y="440"/>
      <point x="330" y="440" type="curve" smooth="yes"/>
      <point x="399" y="440"/>
      <point x="453" y="403"/>
      <point x="453" y="292" type="curve" smooth="yes"/>
      <point x="453" y="0" type="line"/>
      <point x="533" y="0" type="line"/>
      <point x="533" y="320" type="line" smooth="yes"/>
      <point x="533" y="449"/>
      <point x="445" y="510"/>
      <point x="338" y="510" type="curve" smooth="yes"/>
    </contour>
    <contour>
      <point x="95" y="500" type="line"/>
      <point x="95" y="383" type="line"/>
      <point x="95" y="0" type="line"/>
      <point x="175" y="0" type="line"/>
      <point x="175" y="383" type="line"/>
      <point x="160" y="500" type="line"/>
    </contour>
    <contour>
      <point x="320" y="500" type="move" name="top"/>
    </contour>
    <contour>
      <point x="316" y="0" type="move" name="bottom"/>
    </contour>
  </outline>
</glyph>
<glyph name="o" format="1">
  <advance width="636"/>
  <unicode hex="006F"/>
  <outline>
    <contour>
      <point x="164" y="510"/>
      <point x="73" y="412"/>
      <point x="73" y="250" type="curve" smooth="yes"/>
      <point x="73" y="88"/>
      <point x="164" y="-10"/>
      <point x="318" y="-10" type="curve" smooth="yes"/>
      <point x="472" y="-10"/>
      <point x="563" y="88"/>
      <point x="563" y="250" type="curve" smooth="yes"/>
      <point x="563" y="412"/>
      <point x="472" y="510"/>
      <point x="318" y="510" type="curve" smooth="yes"/>
    </contour>
    <contour>
      <point x="419" y="440"/>
      <point x="480" y="369"/>
      <point x="480" y="250" type="curve" smooth="yes"/>
      <point x="480" y="131"/>
      <point x="419" y="60"/>
      <point x="318" y="60" type="curve" smooth="yes"/>
      <point x="217" y="60"/>
      <point x="156" y="131"/>
      <point x="156" y="250" type="curve" smooth="yes"/>
      <point x="156" y="369"/>
      <point x="217" y="440"/>
      <point x="318" y="440" type="curve" smooth="yes"/>
    </contour>
    <contour>
      <point x="318" y="500" type="move" name="top"/>
    </contour>
  </outline>
</glyph>
<glyph name="p" format="1">
  <advance width="630"/>
  <unicode hex="0070"/>
  <outline>
    <contour>
      <point x="94" y="500" type="line"/>
      <point x="94" y="383" type="line"/>
      <point x="94" y="-210" type="line"/>
      <point x="174" y="-210" type="line"/>
      <point x="174" y="383" type="line"/>
      <point x="159" y="500" type="line"/>
    </contour>
    <component base="bowl" xOffset="648" xScale="-1"/>
  </outline>
</glyph>
<glyph name="q" format="1">
  <advance width="637"/>
  <unicode hex="0071"/>
  <outline>
    <contour>
      <point x="478" y="500" type="line"/>
      <point x="463" y="383" type="line"/>
      <point x="463" y="-210" type="line"/>
      <point x="543" y="-210" type="line"/>
      <point x="543" y="383" type="line"/>
      <point x="543" y="500" type="line"/>
    </contour>
    <component base="bowl" xOffset="-11"/>
  </outline>
</glyph>
<glyph name="r" format="1">
  <advance width="385"/>
  <unicode hex="0072"/>
  <outline>
    <contour>
      <point x="216" y="510"/>
      <point x="152" y="438"/>
      <point x="142" y="315" type="curve"/>
      <point x="173" y="309" type="line"/>
      <point x="183" y="401"/>
      <point x="255" y="427"/>
      <point x="307" y="427" type="curve" smooth="yes"/>
      <point x="333" y="427"/>
      <point x="355" y="422"/>
      <point x="370" y="414" type="curve"/>
      <point x="386" y="500" type="line"/>
      <point x="371" y="508"/>
      <point x="348" y="510"/>
      <point x="331" y="510" type="curve" smooth="yes"/>
    </contour>
    <contour>
      <point x="95" y="500" type="line"/>
      <point x="95" y="383" type="line"/>
      <point x="95" y="0" type="line"/>
      <point x="175" y="0" type="line"/>
      <point x="175" y="383" type="line"/>
      <point x="160" y="500" type="line"/>
    </contour>
    <contour>
      <point x="222" y="500" type="move" name="top"/>
    </contour>
    <contour>
      <point x="193" y="0" type="move" name="bottom"/>
    </contour>
  </outline>
</glyph>
<glyph name="s" format="1">
  <advance width="530"/>
  <unicode hex="0073"/>
  <outline>
    <contour>
      <point x="150" y="510"/>
      <point x="75" y="441"/>
      <point x="75" y="360" type="curve" smooth="yes"/>
      <point x="75" y="276"/>
      <point x="130" y="237"/>
      <point x="254" y="214" type="curve" smooth="yes"/>
      <point x="380" y="191"/>
      <point x="400" y="171"/>
      <point x="400" y="126" type="curve" smooth="yes"/>
      <point x="400" y="93"/>
      <point x="356" y="65"/>
      <point x="279" y="65" type="curve" smooth="yes"/>
      <point x="207" y="65"/>
      <point x="154" y="94"/>
      <point x="130" y="153" type="curve"/>
      <point x="57" y="117" type="line"/>
      <point x="89" y="24"/>
      <point x="169" y="-10"/>
      <point x="271" y="-10" type="curve" smooth="yes"/>
      <point x="399" y="-10"/>
      <point x="480" y="51"/>
      <point x="480" y="138" type="curve" smooth="yes"/>
      <point x="480" y="223"/>
      <point x="431" y="259"/>
      <point x="314" y="279" type="curve" smooth="yes"/>
      <point x="182" y="302"/>
      <point x="155" y="327"/>
      <point x="155" y="366" type="curve" smooth="yes"/>
      <point x="155" y="404"/>
      <point x="205" y="438"/>
      <point x="272" y="438" type="curve" smooth="yes"/>
      <point x="335" y="438"/>
      <point x="381" y="414"/>
      <point x="403" y="348" type="curve"/>
      <point x="470" y="390" type="line"/>
      <point x="442" y="472"/>
      <point x="379" y="510"/>
      <point x="272" y="510" type="curve" smooth="yes"/>
    </contour>
    <contour>
      <point x="272" y="500" type="move" name="top"/>
    </contour>
    <contour>
      <point x="265" y="0" type="move" name="bottom"/>
    </contour>
  </outline>
</glyph>
<glyph name="t" format="1">
  <advance width="423"/>
  <unicode hex="0074"/>
  <outline>
    <contour>
      <point x="120" y="620" type="line"/>
      <point x="120" y="124" type="line" smooth="yes"/>
      <point x="121" y="27"/>
      <point x="185" y="-10"/>
      <point x="259" y="-10" type="curve" smooth="yes"/>
      <point x="322" y="-10"/>
      <point x="357" y="7"/>
      <point x="388" y="35" type="curve"/>
      <point x="360" y="102" type="line"/>
      <point x="337" y="79"/>
      <point x="311" y="65"/>
      <point x="275" y="65" type="curve" smooth="yes"/>
      <point x="231" y="65"/>
      <point x="200" y="89"/>
      <point x="200" y="138" type="curve" smooth="yes"/>
      <point x="200" y="642" type="line"/>
    </contour>
    <contour>
      <point x="20" y="500" type="line"/>
      <point x="20" y="431" type="line"/>
      <point x="375" y="431" type="line"/>
      <point x="375" y="500" type="line"/>
    </contour>
  </outline>
</glyph>
<glyph name="u" format="1">
  <advance width="620"/>
  <unicode hex="0075"/>
  <outline>
    <contour>
      <point x="88" y="500" type="line"/>
      <point x="88" y="173" type="line" smooth="yes"/>
      <point x="88" y="41"/>
      <point x="173" y="-10"/>
      <point x="272" y="-10" type="curve" smooth="yes"/>
      <point x="396" y="-10"/>
      <point x="468" y="53"/>
      <point x="482" y="173" type="curve"/>
      <point x="446" y="184" type="line"/>
      <point x="433" y="106"/>
      <point x="373" y="60"/>
      <point x="286" y="60" type="curve" smooth="yes"/>
      <point x="214" y="60"/>
      <point x="168" y="91"/>
      <point x="168" y="194" type="curve" smooth="yes"/>
      <point x="168" y="500" type="line"/>
    </contour>
    <contour>
      <point x="446" y="500" type="line"/>
      <point x="446" y="117" type="line"/>
      <point x="461" y="0" type="line"/>
      <point x="526" y="0" type="line"/>
      <point x="526" y="117" type="line"/>
      <point x="526" y="500" type="line"/>
    </contour>
    <contour>
      <point x="526" y="0" type="move" name="ogonek"/>
    </contour>
    <contour>
      <point x="308" y="500" type="move" name="top"/>
    </contour>
  </outline>
</glyph>
<glyph name="v" format="1">
  <advance width="528"/>
  <unicode hex="0076"/>
  <outline>
    <contour>
      <point x="428" y="500" type="line"/>
      <point x="224" y="0" type="line"/>
      <point x="304" y="0" type="line"/>
      <point x="517" y="500" type="line"/>
    </contour>
    <contour>
      <point x="11" y="500" type="line"/>
      <point x="224" y="0" type="line"/>
      <point x="304" y="0" type="line"/>
      <point x="100" y="500" type="line"/>
    </contour>
  </outline>
</glyph>
<glyph name="w" format="1">
  <advance width="816"/>
  <unicode hex="0077"/>
  <outline>
    <contour>
      <point x="368" y="500" type="line"/>
      <point x="545" y="0" type="line"/>
      <point x="625" y="0" type="line"/>
      <point x="448" y="500" type="line"/>
    </contour>
    <contour>
      <point x="17" y="500" type="line"/>
      <point x="191" y="0" type="line"/>
      <point x="271" y="0" type="line"/>
      <point x="106" y="500" type="line"/>
    </contour>
    <contour>
      <point x="368" y="500" type="line"/>
      <point x="201" y="0" type="line"/>
      <point x="271" y="0" type="line"/>
      <point x="438" y="500" type="line"/>
    </contour>
    <contour>
      <point x="710" y="500" type="line"/>
      <point x="555" y="0" type="line"/>
      <point x="625" y="0" type="line"/>
      <point x="799" y="500" type="line"/>
    </contour>
  </outline>
</glyph>
<glyph name="x" format="1">
  <advance width="475"/>
  <unicode hex="0078"/>
  <outline>
    <contour>
      <point x="361" y="500" type="line"/>
      <point x="218" y="288" type="line"/>
      <point x="212" y="288" type="line"/>
      <point x="4" y="0" type="line"/>
      <point x="98" y="0" type="line"/>
      <point x="258" y="237" type="line"/>
      <point x="262" y="237" type="line"/>
      <point x="445" y="500" type="line"/>
    </contour>
    <contour>
      <point x="21" y="500" type="line"/>
      <point x="361" y="0" type="line"/>
      <point x="457" y="0" type="line"/>
      <point x="117" y="500" type="line"/>
    </contour>
    <contour>
      <point x="21" y="500" type="line"/>
      <point x="361" y="0" type="line"/>
      <point x="457" y="0" type="line"/>
      <point x="117" y="500" type="line"/>
    </contour>
  </outline>
</glyph>
<glyph name="y" format="1">
  <advance width="532"/>
  <unicode hex="0079"/>
  <outline>
    <contour>
      <point x="435" y="500" type="line"/>
      <point x="208" y="-64" type="line" smooth="yes"/>
      <point x="183" y="-127"/>
      <point x="151" y="-142"/>
      <point x="111" y="-142" type="curve" smooth="yes"/>
      <point x="81" y="-142"/>
      <point x="53" y="-139"/>
      <point x="17" y="-112" type="curve"/>
      <point x="31" y="-196" type="line"/>
      <point x="50" y="-206"/>
      <point x="76" y="-215"/>
      <point x="118" y="-215" type="curve" smooth="yes"/>
      <point x="195" y="-215"/>
      <point x="235" y="-182"/>
      <point x="268" y="-103" type="curve" smooth="yes"/>
      <point x="521" y="500" type="line"/>
    </contour>
    <contour>
      <point x="15" y="500" type="line"/>
      <point x="235" y="0" type="line"/>
      <point x="312" y="0" type="line"/>
      <point x="106" y="500" type="line"/>
    </contour>
    <contour>
      <point x="266" y="500" type="move" name="top"/>
    </contour>
  </outline>
</glyph>
<glyph name="z" format="1">
  <advance width="564"/>
  <unicode hex="007A"/>
  <outline>
    <contour>
      <point x="68" y="63" type="line"/>
      <point x="122" y="13" type="line"/>
      <point x="506" y="438" type="line"/>
      <point x="452" y="487" type="line"/>
    </contour>
    <contour>
      <point x="251" y="68" type="line"/>
      <point x="68" y="63" type="line"/>
      <point x="68" y="0" type="line"/>
      <point x="251" y="0" type="line"/>
      <point x="506" y="0" type="line"/>
      <point x="506" y="68" type="line"/>
    </contour>
    <contour>
      <point x="332" y="500" type="line"/>
      <point x="68" y="500" type="line"/>
      <point x="68" y="433" type="line"/>
      <point x="332" y="433" type="line"/>
      <point x="506" y="438" type="line"/>
      <point x="506" y="500" type="line"/>
    </contour>
  </outline>
</glyph>
<glyph name="braceleft" format="1">
  <advance width="411"/>
  <unicode hex="007B"/>
  <outline>
    <contour>
      <point x="199" y="751"/>
      <point x="157" y="706"/>
      <point x="157" y="627" type="curve" smooth="yes"/>
      <point x="157" y="420" type="line" smooth="yes"/>
      <point x="157" y="345"/>
      <point x="126" y="316"/>
      <point x="45" y="316" type="curve"/>
      <point x="45" y="274" type="line"/>
      <point x="165" y="274"/>
      <point x="232" y="320"/>
      <point x="232" y="413" type="curve" smooth="yes"/>
      <point x="232" y="633" type="line" smooth="yes"/>
      <point x="232" y="669"/>
      <point x="259" y="686"/>
      <point x="314" y="686" type="curve"/>
      <point x="314" y="751" type="line"/>
    </contour>
    <contour>
      <point x="45" y="246" type="line"/>
      <point x="126" y="246"/>
      <point x="157" y="217"/>
      <point x="157" y="142" type="curve" smooth="yes"/>
      <point x="157" y="-65" type="line" smooth="yes"/>
      <point x="157" y="-144"/>
      <point x="199" y="-189"/>
      <point x="314" y="-189" type="curve"/>
      <point x="314" y="-124" type="line"/>
      <point x="259" y="-124"/>
      <point x="232" y="-107"/>
      <point x="232" y="-71" type="curve" smooth="yes"/>
      <point x="232" y="149" type="line" smooth="yes"/>
      <point x="232" y="242"/>
      <point x="165" y="288"/>
      <point x="45" y="288" type="curve"/>
    </contour>
  </outline>
</glyph>
<glyph name="sterling" format="1">
  <advance width="622"/>
  <unicode hex="00A3"/>
  <outline>
    <contour>
      <point x="241" y="670"/>
      <point x="153" y="585"/>
      <point x="153" y="467" type="curve" smooth="yes"/>
      <point x="153" y="338"/>
      <point x="289" y="289"/>
      <point x="289" y="166" type="curve" smooth="yes"/>
      <point x="289" y="105"/>
      <point x="251" y="44"/>
      <point x="175" y="44" type="curve" smooth="yes"/>
      <point x="148" y="44"/>
      <point x="128" y="55"/>
      <point x="128" y="76" type="curve" smooth="yes"/>
      <point x="128" y="96"/>
      <point x="142" y="111"/>
      <point x="174" y="111" type="curve" smooth="yes"/>
      <point x="268" y="111"/>
      <point x="336" y="-10"/>
      <point x="458" y="-10" type="curve" smooth="yes"/>
      <point x="520" y="-10"/>
      <point x="567" y="17"/>
      <point x="597" y="65" type="curve"/>
      <point x="544" y="116" type="line"/>
      <point x="520" y="76"/>
      <point x="491" y="61"/>
      <point x="452" y="61" type="curve" smooth="yes"/>
      <point x="340" y="61"/>
      <point x="309" y="165"/>
      <point x="173" y="165" type="curve" smooth="yes"/>
      <point x="98" y="165"/>
      <point x="55" y="123"/>
      <point x="55" y="76" type="curve" smooth="yes"/>
      <point x="55" y="26"/>
      <point x="97" y="-10"/>
      <point x="165" y="-10" type="curve" smooth="yes"/>
      <point x="297" y="-10"/>
      <point x="363" y="85"/>
      <point x="363" y="168" type="curve" smooth="yes"/>
      <point x="363" y="330"/>
      <point x="236" y="367"/>
      <point x="236" y="480" type="curve" smooth="yes"/>
      <point x="236" y="547"/>
      <point x="287" y="595"/>
      <point x="357" y="595" type="curve" smooth="yes"/>
      <point x="437" y="595"/>
      <point x="471" y="550"/>
      <point x="490" y="474" type="curve"/>
      <point x="563" y="514" type="line"/>
      <point x="534" y="619"/>
      <point x="469" y="670"/>
      <point x="364" y="670" type="curve" smooth="yes"/>
    </contour>
    <contour>
      <point x="91" y="343" type="line"/>
      <point x="91" y="278" type="line"/>
      <point x="478" y="278" type="line"/>
      <point x="478" y="343" type="line"/>
    </contour>
  </outline>
</glyph>
<glyph name="yen" format="1">
  <advance width="594"/>
  <unicode hex="00A5"/>
  <outline>
    <contour>
      <point x="60" y="317" type="line"/>
      <point x="60" y="257" type="line"/>
      <point x="515" y="257" type="line"/>
      <point x="515" y="317" type="line"/>
    </contour>
    <contour>
      <point x="60" y="176" type="line"/>
      <point x="60" y="116" type="line"/>
      <point x="515" y="116" type="line"/>
      <point x="515" y="176" type="line"/>
    </contour>
    <component base="Y"/>
  </outline>
</glyph>
<glyph name="brokenbar" format="1">
  <advance width="265"/>
  <unicode hex="00A6"/>
  <outline>
    <contour>
      <point x="98" y="730" type="line"/>
      <point x="98" y="367" type="line"/>
      <point x="167" y="367" type="line"/>
      <point x="167" y="730" type="line"/>
    </contour>
    <contour>
      <point x="98" y="195" type="line"/>
      <point x="98" y="-168" type="line"/>
      <point x="167" y="-168" type="line"/>
      <point x="167" y="195" type="line"/>
    </contour>
  </outline>
</glyph>
<glyph name="section" format="1">
  <advance width="600"/>
  <unicode hex="00A7"/>
  <outline>
    <contour>
      <point x="148" y="371"/>
      <point x="83" y="313"/>
      <point x="83" y="231" type="curve" smooth="yes"/>
      <point x="83" y="131"/>
      <point x="149" y="84"/>
      <point x="295" y="57" type="curve" smooth="yes"/>
      <point x="462" y="25"/>
      <point x="490" y="-4"/>
      <point x="490" y="-60" type="curve" smooth="yes"/>
      <point x="490" y="-118"/>
      <point x="426" y="-145"/>
      <point x="327" y="-145" type="curve" smooth="yes"/>
      <point x="217" y="-145"/>
      <point x="166" y="-118"/>
      <point x="135" y="-33" type="curve"/>
      <point x="57" y="-70" type="line"/>
      <point x="95" y="-170"/>
      <point x="190" y="-215"/>
      <point x="325" y="-215" type="curve" smooth="yes"/>
      <point x="473" y="-215"/>
      <point x="570" y="-152"/>
      <point x="570" y="-54" type="curve" smooth="yes"/>
      <point x="570" y="46"/>
      <point x="509" y="95"/>
      <point x="351" y="124" type="curve" smooth="yes"/>
      <point x="199" y="152"/>
      <point x="164" y="182"/>
      <point x="164" y="239" type="curve" smooth="yes"/>
      <point x="164" y="305"/>
      <point x="214" y="335"/>
      <point x="302" y="356" type="curve"/>
      <point x="258" y="388" type="line"/>
    </contour>
    <contour>
      <point x="172" y="670"/>
      <point x="83" y="593"/>
      <point x="83" y="501" type="curve" smooth="yes"/>
      <point x="83" y="401"/>
      <point x="149" y="354"/>
      <point x="295" y="327" type="curve" smooth="yes"/>
      <point x="462" y="295"/>
      <point x="490" y="266"/>
      <point x="490" y="210" type="curve" smooth="yes"/>
      <point x="490" y="137"/>
      <point x="431" y="118"/>
      <point x="344" y="100" type="curve"/>
      <point x="369" y="57" type="line"/>
      <point x="477" y="74"/>
      <point x="570" y="119"/>
      <point x="570" y="216" type="curve" smooth="yes"/>
      <point x="570" y="316"/>
      <point x="509" y="365"/>
      <point x="351" y="394" type="curve" smooth="yes"/>
      <point x="199" y="422"/>
      <point x="164" y="452"/>
      <point x="164" y="509" type="curve" smooth="yes"/>
      <point x="164" y="562"/>
      <point x="218" y="600"/>
      <point x="320" y="600" type="curve" smooth="yes"/>
      <point x="415" y="600"/>
      <point x="459" y="578"/>
      <point x="497" y="503" type="curve"/>
      <point x="564" y="555" type="line"/>
      <point x="512" y="639"/>
      <point x="445" y="670"/>
      <point x="319" y="670" type="curve" smooth="yes"/>
    </contour>
  </outline>
</glyph>
<glyph name="dieresis" format="1">
  <advance width="500"/>
  <unicode hex="00A8"/>
  <outline>
    <contour>
      <point x="120" y="706"/>
      <point x="94" y="680"/>
      <point x="94" y="649" type="curve" smooth="yes"/>
      <point x="94" y="618"/>
      <point x="120" y="592"/>
      <point x="151" y="592" type="curve" smooth="yes"/>
      <point x="182" y="592"/>
      <point x="208" y="618"/>
      <point x="208" y="649" type="curve" smooth="yes"/>
      <point x="208" y="680"/>
      <point x="182" y="706"/>
      <point x="151" y="706" type="curve" smooth="yes"/>
    </contour>
    <contour>
      <point x="317" y="706"/>
      <point x="291" y="680"/>
      <point x="291" y="649" type="curve" smooth="yes"/>
      <point x="291" y="618"/>
      <point x="317" y="592"/>
      <point x="348" y="592" type="curve" smooth="yes"/>
      <point x="379" y="592"/>
      <point x="405" y="618"/>
      <point x="405" y="649" type="curve" smooth="yes"/>
      <point x="405" y="680"/>
      <point x="379" y="706"/>
      <point x="348" y="706" type="curve" smooth="yes"/>
    </contour>
    <contour>
      <point x="253" y="500" type="move" name="_top"/>
    </contour>
  </outline>
</glyph>
<glyph name="copyright" format="1">
  <advance width="1000"/>
  <unicode hex="00A9"/>
  <outline>
    <contour>
      <point x="236" y="670"/>
      <point x="70" y="500"/>
      <point x="70" y="230" type="curve" smooth="yes"/>
      <point x="70" y="-40"/>
      <point x="236" y="-210"/>
      <point x="500" y="-210" type="curve" smooth="yes"/>
      <point x="764" y="-210"/>
      <point x="930" y="-40"/>
      <point x="930" y="230" type="curve" smooth="yes"/>
      <point x="930" y="500"/>
      <point x="764" y="670"/>
      <point x="500" y="670" type="curve" smooth="yes"/>
    </contour>
    <contour>
      <point x="718" y="605"/>
      <point x="856" y="460"/>
      <point x="856" y="230" type="curve" smooth="yes"/>
      <point x="856" y="0"/>
      <point x="718" y="-145"/>
      <point x="500" y="-145" type="curve" smooth="yes"/>
      <point x="282" y="-145"/>
      <point x="144" y="0"/>
      <point x="144" y="230" type="curve" smooth="yes"/>
      <point x="144" y="460"/>
      <point x="282" y="605"/>
      <point x="500" y="605" type="curve" smooth="yes"/>
    </contour>
    <contour>
      <point x="370" y="475"/>
      <point x="283" y="380"/>
      <point x="283" y="237" type="curve" smooth="yes"/>
      <point x="283" y="89"/>
      <point x="371" y="-10"/>
      <point x="518" y="-10" type="curve" smooth="yes"/>
      <point x="620" y="-10"/>
      <point x="692" y="49"/>
      <point x="712" y="135" type="curve"/>
      <point x="649" y="161" type="line"/>
      <point x="641" y="94"/>
      <point x="589" y="55"/>
      <point x="516" y="55" type="curve" smooth="yes"/>
      <point x="418" y="55"/>
      <point x="361" y="127"/>
      <point x="361" y="237" type="curve" smooth="yes"/>
      <point x="361" y="343"/>
      <point x="417" y="415"/>
      <point x="515" y="415" type="curve" smooth="yes"/>
      <point x="585" y="415"/>
      <point x="625" y="368"/>
      <point x="639" y="321" type="curve"/>
      <point x="706" y="358" type="line"/>
      <point x="680" y="418"/>
      <point x="620" y="475"/>
      <point x="517" y="475" type="curve" smooth="yes"/>
    </contour>
  </outline>
</glyph>
<glyph name="ordfeminine" format="1">
  <advance width="457"/>
  <unicode hex="00AA"/>
  <outline>
    <contour>
      <point x="147" y="670"/>
      <point x="81" y="636"/>
      <point x="63" y="585" type="curve"/>
      <point x="117" y="554" type="line"/>
      <point x="136" y="598"/>
      <point x="168" y="613"/>
      <point x="215" y="613" type="curve" smooth="yes"/>
      <point x="270" y="613"/>
      <point x="295" y="590"/>
      <point x="295" y="544" type="curve" smooth="yes"/>
      <point x="295" y="384" type="line" smooth="yes"/>
      <point x="295" y="339"/>
      <point x="326" y="306"/>
      <point x="369" y="306" type="curve" smooth="yes"/>
      <point x="387" y="306"/>
      <point x="402" y="310"/>
      <point x="412" y="313" type="curve"/>
      <point x="415" y="366" type="line"/>
      <point x="407" y="364"/>
      <point x="396" y="363"/>
      <point x="387" y="363" type="curve" smooth="yes"/>
      <point x="367" y="363"/>
      <point x="360" y="371"/>
      <point x="360" y="388" type="curve" smooth="yes"/>
      <point x="360" y="551" type="line" smooth="yes"/>
      <point x="360" y="632"/>
      <point x="295" y="670"/>
      <point x="213" y="670" type="curve" smooth="yes"/>
    </contour>
    <contour>
      <point x="208" y="514" type="line" smooth="yes"/>
      <point x="111" y="497"/>
      <point x="57" y="468"/>
      <point x="57" y="403" type="curve" smooth="yes"/>
      <point x="57" y="333"/>
      <point x="109" y="306"/>
      <point x="177" y="306" type="curve" smooth="yes"/>
      <point x="245" y="306"/>
      <point x="311" y="342"/>
      <point x="311" y="400" type="curve"/>
      <point x="296" y="427" type="line"/>
      <point x="296" y="394"/>
      <point x="243" y="363"/>
      <point x="186" y="363" type="curve" smooth="yes"/>
      <point x="148" y="363"/>
      <point x="122" y="376"/>
      <point x="122" y="402" type="curve" smooth="yes"/>
      <point x="122" y="439"/>
      <point x="159" y="455"/>
      <point x="224" y="467" type="curve" smooth="yes"/>
      <point x="329" y="486" type="line"/>
      <point x="321" y="534" type="line"/>
    </contour>
    <contour>
      <point x="62" y="222" type="line"/>
      <point x="62" y="169" type="line"/>
      <point x="399" y="169" type="line"/>
      <point x="399" y="222" type="line"/>
    </contour>
  </outline>
</glyph>
<glyph name="logicalnot" format="1">
  <advance width="620"/>
  <unicode hex="00AC"/>
  <outline>
    <contour>
      <point x="67" y="328" type="line"/>
      <point x="67" y="253" type="line"/>
      <point x="553" y="253" type="line"/>
      <point x="553" y="328" type="line"/>
    </contour>
    <contour>
      <point x="473" y="328" type="line"/>
      <point x="473" y="102" type="line"/>
      <point x="553" y="102" type="line"/>
      <point x="553" y="328" type="line"/>
    </contour>
  </outline>
</glyph>
<glyph name="registered" format="1">
  <advance width="1000"/>
  <unicode hex="00AE"/>
  <outline>
    <contour>
      <point x="236" y="670"/>
      <point x="70" y="500"/>
      <point x="70" y="230" type="curve" smooth="yes"/>
      <point x="70" y="-40"/>
      <point x="236" y="-210"/>
      <point x="500" y="-210" type="curve" smooth="yes"/>
      <point x="764" y="-210"/>
      <point x="930" y="-40"/>
      <point x="930" y="230" type="curve" smooth="yes"/>
      <point x="930" y="500"/>
      <point x="764" y="670"/>
      <point x="500" y="670" type="curve" smooth="yes"/>
    </contour>
    <contour>
      <point x="340" y="470" type="line"/>
      <point x="339" y="0" type="line"/>
      <point x="416" y="0" type="line"/>
      <point x="416" y="470" type="line"/>
    </contour>
    <contour>
      <point x="500" y="191" type="line"/>
      <point x="626" y="0" type="line"/>
      <point x="717" y="0" type="line"/>
      <point x="563" y="220" type="line"/>
    </contour>
    <contour>
      <point x="718" y="605"/>
      <point x="856" y="460"/>
      <point x="856" y="230" type="curve" smooth="yes"/>
      <point x="856" y="0"/>
      <point x="718" y="-145"/>
      <point x="500" y="-145" type="curve" smooth="yes"/>
      <point x="282" y="-145"/>
      <point x="144" y="0"/>
      <point x="144" y="230" type="curve" smooth="yes"/>
      <point x="144" y="460"/>
      <point x="282" y="605"/>
      <point x="500" y="605" type="curve" smooth="yes"/>
    </contour>
    <contour>
      <point x="387" y="470" type="line"/>
      <point x="387" y="405" type="line"/>
      <point x="527" y="405" type="line" smooth="yes"/>
      <point x="595" y="405"/>
      <point x="628" y="377"/>
      <point x="628" y="320" type="curve" smooth="yes"/>
      <point x="628" y="263"/>
      <point x="595" y="235"/>
      <point x="527" y="235" type="curve" smooth="yes"/>
      <point x="387" y="235" type="line"/>
      <point x="387" y="170" type="line"/>
      <point x="528" y="170" type="line" smooth="yes"/>
      <point x="634" y="170"/>
      <point x="706" y="227"/>
      <point x="706" y="320" type="curve" smooth="yes"/>
      <point x="706" y="413"/>
      <point x="634" y="470"/>
      <point x="528" y="470" type="curve" smooth="yes"/>
    </contour>
  </outline>
</glyph>
<glyph name="macron" format="1">
  <advance width="500"/>
  <unicode hex="00AF"/>
  <outline>
    <contour>
      <point x="76" y="674" type="line"/>
      <point x="76" y="607" type="line"/>
      <point x="424" y="607" type="line"/>
      <point x="424" y="674" type="line"/>
    </contour>
    <contour>
      <point x="500" y="10" type="move" name="ogonek"/>
    </contour>
    <contour>
      <point x="250" y="500" type="move" name="_top"/>
    </contour>
  </outline>
</glyph>
<glyph name="plusminus" format="1">
  <advance width="620"/>
  <unicode hex="00B1"/>
  <outline>
    <contour>
      <point x="67" y="434" type="line"/>
      <point x="67" y="359" type="line"/>
      <point x="553" y="359" type="line"/>
      <point x="553" y="434" type="line"/>
    </contour>
    <contour>
      <point x="273" y="610" type="line"/>
      <point x="273" y="184" type="line"/>
      <point x="348" y="184" type="line"/>
      <point x="348" y="610" type="line"/>
    </contour>
    <component base="minus" yOffset="-253"/>
  </outline>
</glyph>
<glyph name="twosuperior" format="1">
  <advance width="310"/>
  <unicode hex="00B2"/>
  <outline>
    <contour>
      <point x="74" y="670"/>
      <point x="32" y="627"/>
      <point x="23" y="558" type="curve"/>
      <point x="74" y="538" type="line"/>
      <point x="77" y="588"/>
      <point x="103" y="613"/>
      <point x="143" y="613" type="curve" smooth="yes"/>
      <point x="180" y="613"/>
      <point x="200" y="588"/>
      <point x="200" y="559" type="curve" smooth="yes"/>
      <point x="200" y="496"/>
      <point x="140" y="461"/>
      <point x="26" y="357" type="curve"/>
      <point x="71" y="331" type="line"/>
      <point x="193" y="442"/>
      <point x="265" y="475"/>
      <point x="265" y="559" type="curve" smooth="yes"/>
      <point x="265" y="624"/>
      <point x="218" y="670"/>
      <point x="146" y="670" type="curve" smooth="yes"/>
    </contour>
    <contour>
      <point x="154" y="368" type="line"/>
      <point x="26" y="357" type="line"/>
      <point x="26" y="311" type="line"/>
      <point x="124" y="311" type="line"/>
      <point x="272" y="311" type="line"/>
      <point x="272" y="368" type="line"/>
    </contour>
  </outline>
</glyph>
<glyph name="threesuperior" format="1">
  <advance width="318"/>
  <unicode hex="00B3"/>
  <outline>
    <contour>
      <point x="117" y="490" type="line"/>
      <point x="117" y="461" type="line"/>
      <point x="131" y="461" type="line" smooth="yes"/>
      <point x="177" y="461"/>
      <point x="212" y="449"/>
      <point x="213" y="411" type="curve" smooth="yes"/>
      <point x="214" y="381"/>
      <point x="195" y="360"/>
      <point x="150" y="360" type="curve" smooth="yes"/>
      <point x="107" y="360"/>
      <point x="84" y="376"/>
      <point x="67" y="423" type="curve"/>
      <point x="14" y="394" type="line"/>
      <point x="34" y="334"/>
      <point x="70" y="306"/>
      <point x="152" y="306" type="curve" smooth="yes"/>
      <point x="221" y="306"/>
      <point x="278" y="343"/>
      <point x="278" y="409" type="curve" smooth="yes"/>
      <point x="278" y="452"/>
      <point x="248" y="490"/>
      <point x="185" y="490" type="curve" smooth="yes"/>
    </contour>
    <contour>
      <point x="72" y="670"/>
      <point x="42" y="638"/>
      <point x="26" y="589" type="curve"/>
      <point x="76" y="566" type="line"/>
      <point x="83" y="593"/>
      <point x="104" y="613"/>
      <point x="145" y="613" type="curve" smooth="yes"/>
      <point x="182" y="613"/>
      <point x="205" y="598"/>
      <point x="205" y="568" type="curve" smooth="yes"/>
      <point x="204" y="533"/>
      <point x="179" y="515"/>
      <point x="131" y="515" type="curve" smooth="yes"/>
      <point x="117" y="515" type="line"/>
      <point x="117" y="490" type="line"/>
      <point x="185" y="490" type="line" smooth="yes"/>
      <point x="234" y="490"/>
      <point x="270" y="524"/>
      <point x="270" y="573" type="curve" smooth="yes"/>
      <point x="270" y="632"/>
      <point x="221" y="670"/>
      <point x="153" y="670" type="curve" smooth="yes"/>
    </contour>
  </outline>
</glyph>
<glyph name="cedilla" format="1">
  <advance width="600"/>
  <unicode hex="00B8"/>
  <outline>
    <contour>
      <point x="338" y="9"/>
      <point x="343" y="-16"/>
      <point x="343" y="-48" type="curve" smooth="yes"/>
      <point x="343" y="-124"/>
      <point x="302" y="-159"/>
      <point x="236" y="-159" type="curve" smooth="yes"/>
      <point x="203" y="-159"/>
      <point x="175" y="-151"/>
      <point x="148" y="-132" type="curve"/>
      <point x="132" y="-197" type="line"/>
      <point x="159" y="-214"/>
      <point x="200" y="-224"/>
      <point x="237" y="-224" type="curve" smooth="yes"/>
      <point x="330" y="-224"/>
      <point x="404" y="-175"/>
      <point x="404" y="-65" type="curve" smooth="yes"/>
      <point x="404" y="-17"/>
      <point x="396" y="10"/>
      <point x="389" y="31" type="curve"/>
      <point x="331" y="31" type="line"/>
    </contour>
    <contour>
      <point x="310" y="0" type="move" name="_bottom"/>
    </contour>
  </outline>
</glyph>
<glyph name="onesuperior" format="1">
  <advance width="234"/>
  <unicode hex="00B9"/>
  <outline>
    <contour>
      <point x="120" y="660" type="line"/>
      <point x="112" y="557" type="line"/>
      <point x="112" y="306" type="line"/>
      <point x="177" y="306" type="line"/>
      <point x="177" y="577" type="line"/>
      <point x="177" y="660" type="line"/>
    </contour>
    <contour>
      <point x="98" y="633"/>
      <point x="38" y="604"/>
      <point x="10" y="601" type="curve"/>
      <point x="10" y="537" type="line"/>
      <point x="65" y="553"/>
      <point x="118" y="597"/>
      <point x="145" y="642" type="curve"/>
      <point x="120" y="660" type="line"/>
    </contour>
  </outline>
</glyph>
<glyph name="ordmasculine" format="1">
  <advance width="432"/>
  <unicode hex="00BA"/>
  <outline>
    <contour>
      <point x="113" y="670"/>
      <point x="43" y="601"/>
      <point x="43" y="488" type="curve" smooth="yes"/>
      <point x="43" y="375"/>
      <point x="113" y="306"/>
      <point x="216" y="306" type="curve" smooth="yes"/>
      <point x="319" y="306"/>
      <point x="389" y="375"/>
      <point x="389" y="488" type="curve" smooth="yes"/>
      <point x="389" y="601"/>
      <point x="319" y="670"/>
      <point x="216" y="670" type="curve" smooth="yes"/>
    </contour>
    <contour>
      <point x="282" y="613"/>
      <point x="324" y="571"/>
      <point x="324" y="488" type="curve" smooth="yes"/>
      <point x="324" y="405"/>
      <point x="282" y="363"/>
      <point x="216" y="363" type="curve" smooth="yes"/>
      <point x="150" y="363"/>
      <point x="108" y="405"/>
      <point x="108" y="488" type="curve" smooth="yes"/>
      <point x="108" y="571"/>
      <point x="150" y="613"/>
      <point x="216" y="613" type="curve" smooth="yes"/>
    </contour>
    <contour>
      <point x="53" y="222" type="line"/>
      <point x="53" y="169" type="line"/>
      <point x="380" y="169" type="line"/>
      <point x="380" y="222" type="line"/>
    </contour>
  </outline>
</glyph>
<glyph name="multiply" format="1">
  <advance width="620"/>
  <unicode hex="00D7"/>
  <outline>
    <contour>
      <point x="105" y="138" type="line"/>
      <point x="158" y="85" type="line"/>
      <point x="515" y="443" type="line"/>
      <point x="462" y="496" type="line"/>
    </contour>
    <contour>
      <point x="462" y="85" type="line"/>
      <point x="515" y="138" type="line"/>
      <point x="157" y="496" type="line"/>
      <point x="104" y="443" type="line"/>
    </contour>
  </outline>
</glyph>
<glyph name="Oslash" format="1">
  <advance width="772"/>
  <unicode hex="00D8"/>
  <outline>
    <contour>
      <point x="601" y="700" type="line"/>
      <point x="99" y="-41" type="line"/>
      <point x="170" y="-41" type="line"/>
      <point x="672" y="700" type="line"/>
    </contour>
    <component base="O"/>
  </outline>
</glyph>
<glyph name="ae" format="1">
  <advance width="881"/>
  <unicode hex="00E6"/>
  <outline>
    <contour>
      <point x="456" y="510"/>
      <point x="382" y="396"/>
      <point x="382" y="250" type="curve" smooth="yes"/>
      <point x="382" y="88"/>
      <point x="460" y="-10"/>
      <point x="603" y="-10" type="curve" smooth="yes"/>
      <point x="711" y="-10"/>
      <point x="768" y="31"/>
      <point x="804" y="99" type="curve"/>
      <point x="737" y="134" type="line"/>
      <point x="720" y="86"/>
      <point x="683" y="60"/>
      <point x="608" y="60" type="curve" smooth="yes"/>
      <point x="514" y="60"/>
      <point x="457" y="131"/>
      <point x="457" y="250" type="curve" smooth="yes"/>
      <point x="457" y="369"/>
      <point x="517" y="440"/>
      <point x="601" y="440" type="curve" smooth="yes"/>
      <point x="691" y="440"/>
      <point x="743" y="368"/>
      <point x="740" y="255" type="curve" smooth="yes"/>
      <point x="739" y="220" type="line"/>
      <point x="816" y="220" type="line"/>
      <point x="816" y="255" type="line" smooth="yes"/>
      <point x="816" y="412"/>
      <point x="743" y="510"/>
      <point x="602" y="510" type="curve" smooth="yes"/>
    </contour>
    <contour>
      <point x="352" y="287" type="line" smooth="yes"/>
      <point x="167" y="275"/>
      <point x="49" y="240"/>
      <point x="49" y="124" type="curve" smooth="yes"/>
      <point x="49" y="24"/>
      <point x="117" y="-10"/>
      <point x="225" y="-10" type="curve" smooth="yes"/>
      <point x="328" y="-10"/>
      <point x="429" y="48"/>
      <point x="441" y="144" type="curve"/>
      <point x="405" y="210" type="line"/>
      <point x="388" y="91"/>
      <point x="298" y="60"/>
      <point x="223" y="60" type="curve" smooth="yes"/>
      <point x="168" y="60"/>
      <point x="132" y="83"/>
      <point x="132" y="124" type="curve" smooth="yes"/>
      <point x="132" y="167"/>
      <point x="161" y="198"/>
      <point x="361" y="217" type="curve" smooth="yes"/>
      <point x="423" y="223" type="line"/>
      <point x="412" y="291" type="line"/>
    </contour>
    <contour>
      <point x="164" y="510"/>
      <point x="87" y="465"/>
      <point x="58" y="388" type="curve"/>
      <point x="120" y="344" type="line"/>
      <point x="147" y="407"/>
      <point x="192" y="440"/>
      <point x="258" y="440" type="curve" smooth="yes"/>
      <point x="333" y="440"/>
      <point x="377" y="396"/>
      <point x="377" y="330" type="curve" smooth="yes"/>
      <point x="377" y="264" type="line"/>
      <point x="457" y="264" type="line"/>
      <point x="457" y="320" type="line" smooth="yes"/>
      <point x="457" y="435"/>
      <point x="380" y="510"/>
      <point x="260" y="510" type="curve" smooth="yes"/>
    </contour>
    <contour>
      <point x="422" y="291" type="line"/>
      <point x="422" y="220" type="line"/>
      <point x="779" y="220" type="line"/>
      <point x="779" y="291" type="line"/>
    </contour>
    <contour>
      <point x="1083" y="10" type="move" name="ogonek"/>
    </contour>
  </outline>
</glyph>
<glyph name="idieresis" format="1">
  <advance width="268"/>
  <unicode hex="00EF"/>
  <outline>
    <contour>
      <point x="11" y="706"/>
      <point x="-15" y="680"/>
      <point x="-15" y="649" type="curve" smooth="yes"/>
      <point x="-15" y="618"/>
      <point x="11" y="592"/>
      <point x="42" y="592" type="curve" smooth="yes"/>
      <point x="73" y="592"/>
      <point x="99" y="618"/>
      <point x="99" y="649" type="curve" smooth="yes"/>
      <point x="99" y="680"/>
      <point x="73" y="706"/>
      <point x="42" y="706" type="curve" smooth="yes"/>
    </contour>
    <contour>
      <point x="188" y="706"/>
      <point x="162" y="680"/>
      <point x="162" y="649" type="curve" smooth="yes"/>
      <point x="162" y="618"/>
      <point x="188" y="592"/>
      <point x="219" y="592" type="curve" smooth="yes"/>
      <point x="250" y="592"/>
      <point x="276" y="618"/>
      <point x="276" y="649" type="curve" smooth="yes"/>
      <point x="276" y="680"/>
      <point x="250" y="706"/>
      <point x="219" y="706" type="curve" smooth="yes"/>
    </contour>
    <component base="dotlessi"/>
  </outline>
</glyph>
<glyph name="eth" format="1">
  <advance width="606"/>
  <unicode hex="00F0"/>
  <outline>
    <contour>
      <point x="112" y="735" type="line"/>
      <point x="92" y="672" type="line"/>
      <point x="133" y="672" type="line" smooth="yes"/>
      <point x="323" y="672"/>
      <point x="470" y="566"/>
      <point x="470" y="238" type="curve" smooth="yes"/>
      <point x="470" y="144"/>
      <point x="409" y="60"/>
      <point x="298" y="60" type="curve" smooth="yes"/>
      <point x="202" y="60"/>
      <point x="141" y="126"/>
      <point x="141" y="238" type="curve" smooth="yes"/>
      <point x="141" y="348"/>
      <point x="202" y="415"/>
      <point x="303" y="415" type="curve" smooth="yes"/>
      <point x="409" y="415"/>
      <point x="470" y="348"/>
      <point x="470" y="238" type="curve"/>
      <point x="489" y="238" type="line"/>
      <point x="489" y="392"/>
      <point x="430" y="485"/>
      <point x="292" y="485" type="curve" smooth="yes"/>
      <point x="159" y="485"/>
      <point x="58" y="392"/>
      <point x="58" y="238" type="curve" smooth="yes"/>
      <point x="58" y="83"/>
      <point x="149" y="-10"/>
      <point x="294" y="-10" type="curve" smooth="yes"/>
      <point x="466" y="-10"/>
      <point x="548" y="113"/>
      <point x="548" y="288" type="curve" smooth="yes"/>
      <point x="548" y="523"/>
      <point x="417" y="735"/>
      <point x="159" y="735" type="curve" smooth="yes"/>
    </contour>
    <contour>
      <point x="203" y="580" type="line"/>
      <point x="241" y="530" type="line"/>
      <point x="489" y="710" type="line"/>
      <point x="450" y="758" type="line"/>
    </contour>
  </outline>
</glyph>
<glyph name="oslash" format="1">
  <advance width="626"/>
  <unicode hex="00F8"/>
  <outline>
    <contour>
      <point x="491" y="540" type="line"/>
      <point x="68" y="-41" type="line"/>
      <point x="135" y="-41" type="line"/>
      <point x="558" y="540" type="line"/>
    </contour>
    <component base="o"/>
  </outline>
</glyph>
<glyph name="eogonek" format="1">
  <advance width="584"/>
  <unicode hex="0119"/>
  <outline>
    <contour>
      <point x="391" y="50" type="line"/>
      <point x="293" y="3"/>
      <point x="241" y="-29"/>
      <point x="241" y="-105" type="curve" smooth="yes"/>
      <point x="241" y="-167"/>
      <point x="290" y="-215"/>
      <point x="356" y="-215" type="curve" smooth="yes"/>
      <point x="406" y="-215"/>
      <point x="438" y="-196"/>
      <point x="458" y="-178" type="curve"/>
      <point x="436" y="-122" type="line"/>
      <point x="426" y="-136"/>
      <point x="406" y="-152"/>
      <point x="370" y="-152" type="curve" smooth="yes"/>
      <point x="339" y="-152"/>
      <point x="310" y="-139"/>
      <point x="310" y="-104" type="curve" smooth="yes"/>
      <point x="310" y="-45"/>
      <point x="347" y="-21"/>
      <point x="437" y="21" type="curve"/>
    </contour>
    <component base="e"/>
  </outline>
</glyph>
<glyph name="Imacron" format="1">
  <advance width="300"/>
  <unicode hex="012A"/>
  <outline>
    <component base="I"/>
    <component base="macron" xOffset="-5" yOffset="160" xScale="0.62"/>
    <contour>
      <point x="400" y="170" type="move" name="ogonek"/>
    </contour>
  </outline>
</glyph>
<glyph name="dotlessi" format="1">
  <advance width="270"/>
  <unicode hex="0131"/>
  <outline>
    <contour>
      <point x="95" y="500" type="line"/>
      <point x="95" y="0" type="line"/>
      <point x="175" y="0" type="line"/>
      <point x="175" y="500" type="line"/>
    </contour>
    <contour>
      <point x="243" y="10" type="move" name="ogonek"/>
    </contour>
    <contour>
      <point x="135" y="500" type="move" name="top"/>
    </contour>
  </outline>
</glyph>
<glyph name="lacute" format="1">
  <advance width="338"/>
  <unicode hex="013A"/>
  <outline>
    <contour>
      <point x="94" y="813" type="line"/>
      <point x="154" y="813" type="line"/>
      <point x="254" y="980" type="line"/>
      <point x="166" y="980" type="line"/>
    </contour>
    <component base="l"/>
  </outline>
</glyph>
<glyph name="Lslash" format="1">
  <advance width="597"/>
  <unicode hex="0141"/>
  <outline>
    <contour>
      <point x="3" y="289" type="line"/>
      <point x="3" y="206" type="line"/>
      <point x="365" y="448" type="line"/>
      <point x="365" y="531" type="line"/>
    </contour>
    <component base="L"/>
  </outline>
</glyph>
<glyph name="OE" format="1">
  <advance width="1059"/>
  <unicode hex="0152"/>
  <outline>
    <contour>
      <point x="193" y="670"/>
      <point x="80" y="539"/>
      <point x="80" y="330" type="curve" smooth="yes"/>
      <point x="80" y="121"/>
      <point x="193" y="-10"/>
      <point x="381" y="-10" type="curve" smooth="yes"/>
      <point x="473" y="-10"/>
      <point x="530" y="14"/>
      <point x="569" y="66" type="curve"/>
      <point x="569" y="177" type="line"/>
      <point x="533" y="107"/>
      <point x="478" y="65"/>
      <point x="381" y="65" type="curve" smooth="yes"/>
      <point x="244" y="65"/>
      <point x="164" y="164"/>
      <point x="164" y="330" type="curve" smooth="yes"/>
      <point x="164" y="496"/>
      <point x="244" y="595"/>
      <point x="381" y="595" type="curve" smooth="yes"/>
      <point x="478" y="595"/>
      <point x="533" y="553"/>
      <point x="569" y="483" type="curve"/>
      <point x="569" y="594" type="line"/>
      <point x="530" y="646"/>
      <point x="473" y="670"/>
      <point x="381" y="670" type="curve" smooth="yes"/>
    </contour>
    <contour>
      <point x="558" y="660" type="line"/>
      <point x="558" y="0" type="line"/>
      <point x="638" y="0" type="line"/>
      <point x="638" y="660" type="line"/>
    </contour>
    <contour>
      <point x="600" y="75" type="line"/>
      <point x="600" y="0" type="line"/>
      <point x="1000" y="0" type="line"/>
      <point x="1000" y="75" type="line"/>
    </contour>
    <contour>
      <point x="600" y="372" type="line"/>
      <point x="600" y="297" type="line"/>
      <point x="900" y="297" type="line"/>
      <point x="900" y="372" type="line"/>
    </contour>
    <contour>
      <point x="600" y="660" type="line"/>
      <point x="600" y="585" type="line"/>
      <point x="985" y="585" type="line"/>
      <point x="985" y="660" type="line"/>
    </contour>
  </outline>
</glyph>
<glyph name="oe" format="1">
  <advance width="986"/>
  <unicode hex="0153"/>
  <outline>
    <contour>
      <point x="149" y="510"/>
      <point x="58" y="412"/>
      <point x="58" y="250" type="curve" smooth="yes"/>
      <point x="58" y="88"/>
      <point x="149" y="-10"/>
      <point x="303" y="-10" type="curve" smooth="yes"/>
      <point x="451" y="-10"/>
      <point x="538" y="88"/>
      <point x="538" y="250" type="curve" smooth="yes"/>
      <point x="538" y="412"/>
      <point x="451" y="510"/>
      <point x="303" y="510" type="curve" smooth="yes"/>
    </contour>
    <contour>
      <point x="404" y="440"/>
      <point x="465" y="369"/>
      <point x="465" y="250" type="curve" smooth="yes"/>
      <point x="465" y="131"/>
      <point x="404" y="60"/>
      <point x="303" y="60" type="curve" smooth="yes"/>
      <point x="202" y="60"/>
      <point x="141" y="131"/>
      <point x="141" y="250" type="curve" smooth="yes"/>
      <point x="141" y="369"/>
      <point x="202" y="440"/>
      <point x="303" y="440" type="curve" smooth="yes"/>
    </contour>
    <contour>
      <point x="556" y="510"/>
      <point x="475" y="412"/>
      <point x="475" y="250" type="curve" smooth="yes"/>
      <point x="475" y="88"/>
      <point x="562" y="-10"/>
      <point x="707" y="-10" type="curve" smooth="yes"/>
      <point x="815" y="-10"/>
      <point x="877" y="31"/>
      <point x="915" y="99" type="curve"/>
      <point x="848" y="134" type="line"/>
      <point x="830" y="86"/>
      <point x="780" y="60"/>
      <point x="707" y="60" type="curve" smooth="yes"/>
      <point x="606" y="60"/>
      <point x="543" y="131"/>
      <point x="543" y="250" type="curve" smooth="yes"/>
      <point x="543" y="369"/>
      <point x="600" y="440"/>
      <point x="701" y="440" type="curve" smooth="yes"/>
      <point x="796" y="440"/>
      <point x="854" y="368"/>
      <point x="850" y="255" type="curve" smooth="yes"/>
      <point x="849" y="220" type="line"/>
      <point x="926" y="220" type="line"/>
      <point x="926" y="255" type="line" smooth="yes"/>
      <point x="926" y="412"/>
      <point x="846" y="510"/>
      <point x="701" y="510" type="curve" smooth="yes"/>
    </contour>
    <contour>
      <point x="517" y="291" type="line"/>
      <point x="517" y="220" type="line"/>
      <point x="889" y="220" type="line"/>
      <point x="889" y="291" type="line"/>
    </contour>
  </outline>
</glyph>
<glyph name="Uogonek" format="1">
  <advance width="722"/>
  <unicode hex="0172"/>
  <outline>
    <contour>
      <point x="465" y="-123" type="line"/>
      <point x="445" y="-139"/>
      <point x="432" y="-143"/>
      <point x="409" y="-143" type="curve" smooth="yes"/>
      <point x="386" y="-143"/>
      <point x="366" y="-128"/>
      <point x="366" y="-99" type="curve" smooth="yes"/>
      <point x="366" y="-52"/>
      <point x="405" y="-30"/>
      <point x="480" y="18" type="curve"/>
      <point x="435" y="26" type="line"/>
      <point x="350" y="-16"/>
      <point x="302" y="-54"/>
      <point x="302" y="-115" type="curve" smooth="yes"/>
      <point x="302" y="-153"/>
      <point x="326" y="-200"/>
      <point x="400" y="-200" type="curve" smooth="yes"/>
      <point x="431" y="-200"/>
      <point x="461" y="-194"/>
      <point x="481" y="-177" type="curve"/>
    </contour>
    <component base="U"/>
  </outline>
</glyph>
<glyph name="florin" format="1">
  <advance width="514"/>
  <unicode hex="0192"/>
  <outline>
    <contour>
      <point x="329" y="828"/>
      <point x="286" y="766"/>
      <point x="272" y="677" type="curve" smooth="yes"/>
      <point x="162" y="-9" type="line" smooth="yes"/>
      <point x="152" y="-70"/>
      <point x="126" y="-95"/>
      <point x="85" y="-95" type="curve" smooth="yes"/>
      <point x="51" y="-95"/>
      <point x="30" y="-85"/>
      <point x="12" y="-72" type="curve"/>
      <point x="0" y="-144" type="line"/>
      <point x="22" y="-157"/>
      <point x="40" y="-168"/>
      <point x="92" y="-168" type="curve" smooth="yes"/>
      <point x="185" y="-168"/>
      <point x="228" y="-106"/>
      <point x="242" y="-17" type="curve" smooth="yes"/>
      <point x="352" y="669" type="line" smooth="yes"/>
      <point x="362" y="730"/>
      <point x="388" y="755"/>
      <point x="429" y="755" type="curve" smooth="yes"/>
      <point x="463" y="755"/>
      <point x="484" y="745"/>
      <point x="502" y="732" type="curve"/>
      <point x="514" y="804" type="line"/>
      <point x="492" y="817"/>
      <point x="474" y="828"/>
      <point x="422" y="828" type="curve" smooth="yes"/>
    </contour>
    <contour>
      <point x="98" y="500" type="line"/>
      <point x="98" y="431" type="line"/>
      <point x="478" y="431" type="line"/>
      <point x="478" y="500" type="line"/>
    </contour>
  </outline>
</glyph>
<glyph name="breve" format="1">
  <advance width="500"/>
  <unicode hex="02D8"/>
  <outline>
    <contour>
      <point x="341" y="738" type="line"/>
      <point x="341" y="679"/>
      <point x="303" y="636"/>
      <point x="250" y="636" type="curve" smooth="yes"/>
      <point x="197" y="636"/>
      <point x="159" y="679"/>
      <point x="159" y="738" type="curve"/>
      <point x="92" y="738" type="line"/>
      <point x="92" y="644"/>
      <point x="156" y="580"/>
      <point x="250" y="580" type="curve" smooth="yes"/>
      <point x="344" y="580"/>
      <point x="408" y="644"/>
      <point x="408" y="738" type="curve"/>
    </contour>
    <contour>
      <point x="250" y="500" type="move" name="_top"/>
    </contour>
  </outline>
</glyph>
<glyph name="dotaccent" format="1">
  <advance width="500"/>
  <unicode hex="02D9"/>
  <outline>
    <contour>
      <point x="217" y="716"/>
      <point x="190" y="689"/>
      <point x="190" y="656" type="curve" smooth="yes"/>
      <point x="190" y="623"/>
      <point x="217" y="596"/>
      <point x="250" y="596" type="curve" smooth="yes"/>
      <point x="283" y="596"/>
      <point x="310" y="623"/>
      <point x="310" y="656" type="curve" smooth="yes"/>
      <point x="310" y="689"/>
      <point x="283" y="716"/>
      <point x="250" y="716" type="curve" smooth="yes"/>
    </contour>
    <contour>
      <point x="250" y="500" type="move" name="_top"/>
    </contour>
  </outline>
</glyph>
<glyph name="ring" format="1">
  <advance width="500"/>
  <unicode hex="02DA"/>
  <outline>
    <contour>
      <point x="196" y="775"/>
      <point x="152" y="731"/>
      <point x="152" y="678" type="curve" smooth="yes"/>
      <point x="152" y="624"/>
      <point x="196" y="580"/>
      <point x="250" y="580" type="curve" smooth="yes"/>
      <point x="304" y="580"/>
      <point x="347" y="624"/>
      <point x="347" y="678" type="curve" smooth="yes"/>
      <point x="347" y="731"/>
      <point x="304" y="775"/>
      <point x="250" y="775" type="curve" smooth="yes"/>
    </contour>
  </outline>
</glyph>
<glyph name="ogonek" format="1">
  <advance width="600"/>
  <unicode hex="02DB"/>
  <outline>
    <contour>
      <point x="253" y="25" type="line"/>
      <point x="144" y="-10"/>
      <point x="92" y="-53"/>
      <point x="92" y="-118" type="curve" smooth="yes"/>
      <point x="92" y="-180"/>
      <point x="141" y="-215"/>
      <point x="207" y="-215" type="curve" smooth="yes"/>
      <point x="257" y="-215"/>
      <point x="289" y="-196"/>
      <point x="309" y="-178" type="curve"/>
      <point x="287" y="-122" type="line"/>
      <point x="277" y="-136"/>
      <point x="257" y="-152"/>
      <point x="221" y="-152" type="curve" smooth="yes"/>
      <point x="190" y="-152"/>
      <point x="161" y="-139"/>
      <point x="161" y="-104" type="curve" smooth="yes"/>
      <point x="161" y="-67"/>
      <point x="198" y="-40"/>
      <point x="299" y="0" type="curve"/>
    </contour>
    <contour>
      <point x="299" y="0" type="move" name="_ogonek"/>
    </contour>
  </outline>
</glyph>
<glyph name="tilde" format="1">
  <advance width="500"/>
  <unicode hex="02DC"/>
  <outline>
    <contour>
      <point x="368" y="734" type="line"/>
      <point x="361" y="691"/>
      <point x="351" y="665"/>
      <point x="318" y="665" type="curve" smooth="yes"/>
      <point x="276" y="665"/>
      <point x="248" y="733"/>
      <point x="182" y="733" type="curve" smooth="yes"/>
      <point x="111" y="733"/>
      <point x="76" y="687"/>
      <point x="69" y="599" type="curve"/>
      <point x="132" y="599" type="line"/>
      <point x="139" y="642"/>
      <point x="148" y="668"/>
      <point x="181" y="668" type="curve" smooth="yes"/>
      <point x="226" y="668"/>
      <point x="251" y="600"/>
      <point x="319" y="600" type="curve" smooth="yes"/>
      <point x="388" y="600"/>
      <point x="424" y="646"/>
      <point x="431" y="734" type="curve"/>
    </contour>
    <contour>
      <point x="251" y="500" type="move" name="_top"/>
    </contour>
  </outline>
</glyph>
<glyph name="hungarumlaut" format="1">
  <advance width="500"/>
  <unicode hex="02DD"/>
  <outline>
    <contour>
      <point x="327" y="750" type="line"/>
      <point x="255" y="583" type="line"/>
      <point x="309" y="583" type="line"/>
      <point x="409" y="750" type="line"/>
    </contour>
    <contour>
      <point x="183" y="750" type="line"/>
      <point x="111" y="583" type="line"/>
      <point x="165" y="583" type="line"/>
      <point x="265" y="750" type="line"/>
    </contour>
    <contour>
      <point x="223" y="500" type="move" name="_top"/>
    </contour>
  </outline>
</glyph>
<glyph name="uni0326" format="1">
  <advance width="275"/>
  <unicode hex="0326"/>
  <outline>
    <contour>
      <point x="81" y="-76" type="line"/>
      <point x="28" y="-273" type="line"/>
      <point x="94" y="-273" type="line"/>
      <point x="170" y="-76" type="line"/>
    </contour>
    <contour>
      <point x="138" y="0" type="move" name="_bottom"/>
    </contour>
  </outline>
</glyph>
<glyph name="adeva" format="1">
  <advance width="789"/>
  <unicode hex="0905"/>
  <outline>
    <contour>
      <point x="203" y="325.975" type="line"/>
      <point x="332.44" y="324.658"/>
      <point x="377" y="267"/>
      <point x="377" y="200" type="curve" smooth="yes"/>
      <point x="377" y="141"/>
      <point x="345" y="93"/>
      <point x="258" y="93" type="curve" smooth="yes"/>
      <point x="192" y="93"/>
      <point x="114" y="120"/>
      <point x="102" y="217" type="curve"/>
      <point x="43" y="192" type="line"/>
      <point x="72" y="74"/>
      <point x="169" y="33"/>
      <point x="242" y="33" type="curve" smooth="yes"/>
      <point x="370" y="33"/>
      <point x="446" y="91"/>
      <point x="446" y="201" type="curve" smooth="yes"/>
      <point x="446" y="300"/>
      <point x="350.759" y="363.688"/>
      <point x="203" y="364.978" type="curve"/>
    </contour>
    <contour>
      <point x="184" y="660"/>
      <point x="116" y="617"/>
      <point x="107" y="556" type="curve"/>
      <point x="166" y="533" type="line"/>
      <point x="177" y="575"/>
      <point x="195" y="600"/>
      <point x="256" y="600" type="curve" smooth="yes"/>
      <point x="327" y="600"/>
      <point x="352" y="560"/>
      <point x="352" y="508" type="curve" smooth="yes"/>
      <point x="352" y="445"/>
      <point x="321.859" y="381.61"/>
      <point x="203" y="380.033" type="curve"/>
      <point x="203" y="344.023" type="line"/>
      <point x="346.118" y="345.323"/>
      <point x="422" y="408"/>
      <point x="422" y="506" type="curve" smooth="yes"/>
      <point x="422" y="610"/>
      <point x="353" y="660"/>
      <point x="258" y="660" type="curve" smooth="yes"/>
    </contour>
    <contour>
      <point x="203" y="330.971" type="line"/>
      <point x="325.946" y="329.542"/>
      <point x="424.188" y="276"/>
      <point x="491" y="276" type="curve" smooth="yes"/>
      <point x="547.801" y="276"/>
      <point x="593.762" y="285.235"/>
      <point x="638.07" y="303.9" type="curve"/>
      <point x="624.613" y="355.204" type="line"/>
      <point x="583.07" y="338.475"/>
      <point x="542.517" y="330"/>
      <point x="495" y="330" type="curve" smooth="yes"/>
      <point x="434.717" y="330"/>
      <point x="348.984" y="364.218"/>
      <point x="203" y="364.987" type="curve"/>
    </contour>
    <contour>
      <point x="603" y="627" type="line"/>
      <point x="603" y="0" type="line"/>
      <point x="673" y="0" type="line"/>
      <point x="673" y="627" type="line"/>
    </contour>
    <contour>
      <point x="472" y="660" type="line"/>
      <point x="472" y="604" type="line"/>
      <point x="804" y="604" type="line"/>
      <point x="804" y="660" type="line"/>
    </contour>
    <contour>
      <point x="638" y="660" type="move" name="DVAnchor3"/>
    </contour>
  </outline>
</glyph>
<glyph name="ideva" format="1">
  <advance width="570"/>
  <unicode hex="0907"/>
  <outline>
    <contour>
      <point x="-15" y="660" type="line"/>
      <point x="-15" y="604" type="line"/>
      <point x="585" y="604" type="line"/>
      <point x="585" y="660" type="line"/>
    </contour>
    <contour>
      <point x="378" y="627" type="line"/>
      <point x="378" y="441" type="line"/>
      <point x="448" y="441" type="line"/>
      <point x="448" y="627" type="line"/>
    </contour>
    <contour>
      <point x="189" y="497" type="line" smooth="yes"/>
      <point x="104.573" y="497"/>
      <point x="67" y="444.398"/>
      <point x="67" y="377" type="curve" smooth="yes"/>
      <point x="67" y="289.752"/>
      <point x="153.45" y="235"/>
      <point x="240" y="235" type="curve" smooth="yes"/>
      <point x="308.588" y="235"/>
      <point x="352.588" y="262"/>
      <point x="388" y="262" type="curve" smooth="yes"/>
      <point x="420.992" y="262"/>
      <point x="443" y="241.151"/>
      <point x="443" y="202" type="curve" smooth="yes"/>
      <point x="443" y="122.447"/>
      <point x="382" y="73"/>
      <point x="265" y="73" type="curve" smooth="yes"/>
      <point x="213" y="73"/>
      <point x="178" y="81"/>
      <point x="145" y="102" type="curve" smooth="yes"/>
      <point x="93" y="134"/>
      <point x="70" y="109"/>
      <point x="115" y="69" type="curve" smooth="yes"/>
      <point x="181" y="5"/>
      <point x="285" y="-145"/>
      <point x="401" y="-121" type="curve"/>
      <point x="425" y="-70" type="line"/>
      <point x="288" y="-89"/>
      <point x="157" y="123"/>
      <point x="130" y="154" type="curve" smooth="yes"/>
      <point x="67" y="215"/>
      <point x="-1" y="129"/>
      <point x="59" y="76" type="curve" smooth="yes"/>
      <point x="109" y="31"/>
      <point x="148" y="15"/>
      <point x="265" y="15" type="curve" smooth="yes"/>
      <point x="359" y="15"/>
      <point x="507" y="58.854"/>
      <point x="507" y="201" type="curve" smooth="yes"/>
      <point x="507" y="281.579"/>
      <point x="448.263" y="328"/>
      <point x="407" y="328" type="curve" smooth="yes"/>
      <point x="352.486" y="328"/>
      <point x="306" y="298"/>
      <point x="248" y="298" type="curve" smooth="yes"/>
      <point x="196.098" y="298"/>
      <point x="133" y="321.528"/>
      <point x="133" y="380" type="curve" smooth="yes"/>
      <point x="133" y="423.643"/>
      <point x="158.458" y="441"/>
      <point x="194" y="441" type="curve" smooth="yes"/>
      <point x="411" y="441" type="line"/>
      <point x="411" y="497" type="line"/>
    </contour>
    <contour>
      <point x="413" y="660" type="move" name="DVAnchor3"/>
    </contour>
  </outline>
</glyph>
<glyph name="iideva" format="1">
  <advance width="596"/>
  <unicode hex="0908"/>
  <outline>
    <component base="ideva"/>
    <component base="radeva_viramadeva" xOffset="602"/>
    <contour>
      <point x="426" y="660" type="move" name="DVAnchor3"/>
    </contour>
  </outline>
</glyph>
<glyph name="udeva" format="1">
  <advance width="550"/>
  <unicode hex="0909"/>
  <outline>
    <contour>
      <point x="-10" y="660" type="line"/>
      <point x="-10" y="604" type="line"/>
      <point x="560" y="604" type="line"/>
      <point x="560" y="660" type="line"/>
    </contour>
    <contour>
      <point x="236" y="326" type="line"/>
      <point x="343" y="326"/>
      <point x="410" y="271"/>
      <point x="410" y="199" type="curve" smooth="yes"/>
      <point x="410" y="139"/>
      <point x="378" y="93"/>
      <point x="282" y="93" type="curve" smooth="yes"/>
      <point x="192" y="93"/>
      <point x="132" y="136"/>
      <point x="100" y="229" type="curve"/>
      <point x="44" y="198" type="line"/>
      <point x="95" y="77"/>
      <point x="188" y="33"/>
      <point x="275" y="33" type="curve" smooth="yes"/>
      <point x="409" y="33"/>
      <point x="473" y="106"/>
      <point x="473" y="195" type="curve" smooth="yes"/>
      <point x="473" y="306"/>
      <point x="396" y="367"/>
      <point x="236" y="368" type="curve"/>
    </contour>
    <contour>
      <point x="259" y="604" type="line"/>
      <point x="336" y="604"/>
      <point x="385" y="558"/>
      <point x="385" y="493" type="curve" smooth="yes"/>
      <point x="385" y="436"/>
      <point x="355" y="382"/>
      <point x="236" y="380" type="curve"/>
      <point x="236" y="341" type="line"/>
      <point x="376" y="342"/>
      <point x="452" y="402"/>
      <point x="452" y="485" type="curve" smooth="yes"/>
      <point x="452" y="590"/>
      <point x="371" y="636"/>
      <point x="261" y="636" type="curve"/>
    </contour>
    <contour>
      <point x="315" y="660" type="move" name="DVAnchor3"/>
    </contour>
  </outline>
</glyph>
<glyph name="edeva" format="1">
  <advance width="586"/>
  <unicode hex="090F"/>
  <outline>
    <contour>
      <point x="109" y="632" type="line"/>
      <point x="109" y="264" type="line" smooth="yes"/>
      <point x="109" y="210"/>
      <point x="127" y="164"/>
      <point x="207" y="120" type="curve" smooth="yes"/>
      <point x="390" y="22"/>
      <point x="436" y="-5"/>
      <point x="436" y="-45" type="curve" smooth="yes"/>
      <point x="436" y="-74"/>
      <point x="415" y="-96"/>
      <point x="395" y="-114" type="curve"/>
      <point x="446" y="-143" type="line"/>
      <point x="482" y="-117"/>
      <point x="504" y="-83"/>
      <point x="504" y="-40" type="curve" smooth="yes"/>
      <point x="504" y="10"/>
      <point x="478" y="59"/>
      <point x="276" y="153" type="curve" smooth="yes"/>
      <point x="187" y="196"/>
      <point x="180" y="234"/>
      <point x="180" y="289" type="curve"/>
      <point x="179" y="632" type="line"/>
    </contour>
    <contour>
      <point x="-10" y="660" type="line"/>
      <point x="-10" y="604" type="line"/>
      <point x="596" y="604" type="line"/>
      <point x="596" y="660" type="line"/>
    </contour>
    <contour>
      <point x="348" y="234" type="line"/>
      <point x="431" y="264"/>
      <point x="508" y="301"/>
      <point x="508" y="429" type="curve" smooth="yes"/>
      <point x="508" y="521"/>
      <point x="457" y="594"/>
      <point x="390" y="623" type="curve"/>
      <point x="308" y="613" type="line"/>
      <point x="393" y="580"/>
      <point x="442" y="508"/>
      <point x="442" y="425" type="curve" smooth="yes"/>
      <point x="442" y="337"/>
      <point x="387" y="311"/>
      <point x="309" y="289" type="curve"/>
    </contour>
    <contour>
      <point x="321" y="660" type="move" name="DVAnchor3"/>
    </contour>
  </outline>
</glyph>
<glyph name="kadeva" format="1">
  <advance width="886"/>
  <unicode hex="0915"/>
  <outline>
    <contour>
      <point x="414" y="627" type="line"/>
      <point x="414" y="0" type="line"/>
      <point x="484" y="0" type="line"/>
      <point x="484" y="627" type="line"/>
    </contour>
    <contour>
      <point x="137.09" y="495"/>
      <point x="61" y="417.947"/>
      <point x="61" y="299" type="curve" smooth="yes"/>
      <point x="61" y="198.286"/>
      <point x="146.863" y="124"/>
      <point x="240" y="124" type="curve" smooth="yes"/>
      <point x="354.813" y="124"/>
      <point x="407.508" y="168.856"/>
      <point x="446" y="275" type="curve"/>
      <point x="414" y="298" type="line"/>
      <point x="383.489" y="235.158"/>
      <point x="337.012" y="184"/>
      <point x="262" y="184" type="curve" smooth="yes"/>
      <point x="192.455" y="184"/>
      <point x="129" y="227.361"/>
      <point x="129" y="311" type="curve" smooth="yes"/>
      <point x="129" y="396.662"/>
      <point x="187.475" y="436"/>
      <point x="246" y="436" type="curve" smooth="yes"/>
      <point x="279.488" y="436"/>
      <point x="297.298" y="427.075"/>
      <point x="311.051" y="413.341" type="curve"/>
      <point x="338.729" y="461.148" type="line"/>
      <point x="314.325" y="484.623"/>
      <point x="290.214" y="495"/>
      <point x="245" y="495" type="curve" smooth="yes"/>
    </contour>
    <contour>
      <point x="748.02" y="123"/>
      <point x="827" y="197.164"/>
      <point x="827" y="320" type="curve" smooth="yes"/>
      <point x="827" y="427.706"/>
      <point x="744.145" y="499"/>
      <point x="648" y="499" type="curve" smooth="yes"/>
      <point x="548.865" y="499"/>
      <point x="488" y="451"/>
      <point x="451" y="347" type="curve"/>
      <point x="484" y="324" type="line"/>
      <point x="512" y="385"/>
      <point x="559.956" y="439"/>
      <point x="635" y="439" type="curve" smooth="yes"/>
      <point x="707.945" y="439"/>
      <point x="759" y="392.2"/>
      <point x="759" y="307" type="curve" smooth="yes"/>
      <point x="759" y="227.705"/>
      <point x="705.854" y="182"/>
      <point x="654" y="182" type="curve" smooth="yes"/>
      <point x="623.792" y="182"/>
      <point x="606.468" y="191.84"/>
      <point x="591.401" y="205.715" type="curve"/>
      <point x="563.282" y="150.328" type="line"/>
      <point x="585.749" y="132.412"/>
      <point x="609.062" y="123"/>
      <point x="653" y="123" type="curve" smooth="yes"/>
    </contour>
    <contour>
      <point x="-15" y="660" type="line"/>
      <point x="-15" y="604" type="line"/>
      <point x="901" y="604" type="line"/>
      <point x="901" y="660" type="line"/>
    </contour>
    <contour>
      <point x="449" y="0" type="move" name="DVAnchor0"/>
    </contour>
    <contour>
      <point x="449" y="660" type="move" name="DVAnchor3"/>
    </contour>
  </outline>
</glyph>
<glyph name="khadeva" format="1">
  <advance width="917"/>
  <unicode hex="0916"/>
  <outline>
    <contour>
      <point x="732" y="627" type="line"/>
      <point x="732" y="5" type="line"/>
      <point x="802" y="5" type="line"/>
      <point x="802" y="627" type="line"/>
    </contour>
    <contour>
      <point x="-15" y="660" type="line"/>
      <point x="-15" y="604" type="line"/>
      <point x="931" y="604" type="line"/>
      <point x="931" y="660" type="line"/>
    </contour>
    <contour>
      <point x="474.985" y="516"/>
      <point x="408" y="452.842"/>
      <point x="408" y="356" type="curve" smooth="yes"/>
      <point x="408" y="259.093"/>
      <point x="473.049" y="195"/>
      <point x="571" y="195" type="curve" smooth="yes"/>
      <point x="676" y="195"/>
      <point x="731" y="263"/>
      <point x="768" y="344" type="curve"/>
      <point x="732" y="364" type="line"/>
      <point x="699.561" y="301.538"/>
      <point x="651.227" y="255"/>
      <point x="582" y="255" type="curve" smooth="yes"/>
      <point x="515.969" y="255"/>
      <point x="476" y="293.889"/>
      <point x="476" y="359" type="curve" smooth="yes"/>
      <point x="476" y="417.027"/>
      <point x="511.77" y="453.882"/>
      <point x="566.717" y="456.992" type="curve" smooth="yes"/>
      <point x="597.194" y="458.897"/>
      <point x="619.226" y="448.904"/>
      <point x="634.761" y="431.225" type="curve"/>
      <point x="664.956" y="473.163" type="line"/>
      <point x="649.054" y="496.979"/>
      <point x="619.829" y="516"/>
      <point x="578" y="516" type="curve" smooth="yes"/>
    </contour>
    <contour>
      <point x="107.41" y="303.849"/>
      <point x="172.812" y="271.017"/>
      <point x="242.74" y="306.46" type="curve" smooth="yes"/>
      <point x="292.073" y="331.61"/>
      <point x="311" y="377.981"/>
      <point x="311" y="456" type="curve" smooth="yes"/>
      <point x="311" y="632" type="line"/>
      <point x="241" y="632" type="line"/>
      <point x="241" y="456" type="line" smooth="yes"/>
      <point x="241" y="394.323"/>
      <point x="232.151" y="362.245"/>
      <point x="198.805" y="349.337" type="curve" smooth="yes"/>
      <point x="159.339" y="333.145"/>
      <point x="115.519" y="363.499"/>
      <point x="92.79" y="408.812" type="curve"/>
      <point x="72.793" y="385.112" type="line"/>
    </contour>
    <contour>
      <point x="663.43" y="91.667"/>
      <point x="564.604" y="65"/>
      <point x="502" y="65" type="curve" smooth="yes"/>
      <point x="306.257" y="65"/>
      <point x="174.75" y="213.987"/>
      <point x="91.332" y="411.437" type="curve"/>
      <point x="34.519" y="387.334" type="line"/>
      <point x="128.281" y="162.605"/>
      <point x="276.652" y="5"/>
      <point x="495" y="5" type="curve" smooth="yes"/>
      <point x="619.209" y="5"/>
      <point x="694.671" y="40.976"/>
      <point x="766" y="140" type="curve"/>
      <point x="732" y="169" type="line"/>
    </contour>
    <contour>
      <point x="767" y="0" type="move" name="DVAnchor0"/>
    </contour>
    <contour>
      <point x="767" y="660" type="move" name="DVAnchor3"/>
    </contour>
  </outline>
</glyph>
<glyph name="ddadeva" format="1">
  <advance width="648"/>
  <unicode hex="0921"/>
  <outline>
    <contour>
      <point x="-20" y="660" type="line"/>
      <point x="-20" y="594" type="line"/>
      <point x="668" y="594" type="line"/>
      <point x="668" y="660" type="line"/>
    </contour>
    <contour>
      <point x="450" y="627" type="line"/>
      <point x="450" y="436" type="line"/>
      <point x="530" y="436" type="line"/>
      <point x="530" y="627" type="line"/>
    </contour>
    <contour>
      <point x="266" y="502" type="line" smooth="yes"/>
      <point x="179" y="502"/>
      <point x="139" y="446"/>
      <point x="139" y="377" type="curve" smooth="yes"/>
      <point x="139" y="287"/>
      <point x="229" y="230"/>
      <point x="317" y="230" type="curve" smooth="yes"/>
      <point x="387" y="230"/>
      <point x="431" y="257"/>
      <point x="465" y="257" type="curve" smooth="yes"/>
      <point x="496" y="257"/>
      <point x="515" y="239"/>
      <point x="515" y="202" type="curve" smooth="yes"/>
      <point x="515" y="125"/>
      <point x="449" y="83"/>
      <point x="324" y="83" type="curve" smooth="yes"/>
      <point x="223" y="83"/>
      <point x="135" y="136"/>
      <point x="64" y="240" type="curve"/>
      <point x="12" y="200" type="line"/>
      <point x="94" y="74"/>
      <point x="194" y="15"/>
      <point x="326" y="15" type="curve" smooth="yes"/>
      <point x="455" y="15"/>
      <point x="589" y="55"/>
      <point x="589" y="201" type="curve" smooth="yes"/>
      <point x="589" y="284"/>
      <point x="527" y="333"/>
      <point x="484" y="333" type="curve" smooth="yes"/>
      <point x="428" y="333"/>
      <point x="382" y="303"/>
      <point x="325" y="303" type="curve" smooth="yes"/>
      <point x="274" y="303"/>
      <point x="215" y="325"/>
      <point x="215" y="380" type="curve" smooth="yes"/>
      <point x="215" y="421"/>
      <point x="237" y="436"/>
      <point x="271" y="436" type="curve" smooth="yes"/>
      <point x="493" y="436" type="line"/>
      <point x="493" y="502" type="line"/>
    </contour>
    <contour>
      <point x="355" y="45" type="move" name="DVAnchor0"/>
    </contour>
    <contour>
      <point x="490" y="660" type="move" name="DVAnchor3"/>
    </contour>
  </outline>
</glyph>
<glyph name="tadeva" format="1">
  <advance width="659"/>
  <unicode hex="0924"/>
  <outline>
    <contour>
      <point x="182" y="139"/>
      <point x="127" y="190"/>
      <point x="127" y="267" type="curve" smooth="yes"/>
      <point x="127" y="342"/>
      <point x="162" y="386"/>
      <point x="258" y="386" type="curve" smooth="yes"/>
      <point x="507" y="386" type="line"/>
      <point x="507" y="452" type="line"/>
      <point x="234" y="452" type="line" smooth="yes"/>
      <point x="111" y="452"/>
      <point x="48" y="388"/>
      <point x="48" y="280" type="curve" smooth="yes"/>
      <point x="48" y="139"/>
      <point x="143" y="74"/>
      <point x="273" y="0" type="curve"/>
      <point x="314" y="61" type="line"/>
    </contour>
    <contour>
      <point x="469" y="627" type="line"/>
      <point x="469" y="0" type="line"/>
      <point x="549" y="0" type="line"/>
      <point x="549" y="627" type="line"/>
    </contour>
    <contour>
      <point x="-20" y="660" type="line"/>
      <point x="-20" y="594" type="line"/>
      <point x="679" y="594" type="line"/>
      <point x="679" y="660" type="line"/>
    </contour>
    <contour>
      <point x="509" y="660" type="move" name="DVAnchor3"/>
    </contour>
  </outline>
</glyph>
<glyph name="thadeva" format="1">
  <advance width="715"/>
  <unicode hex="0925"/>
  <outline>
    <contour>
      <point x="125" y="665"/>
      <point x="68" y="611"/>
      <point x="68" y="532" type="curve" smooth="yes"/>
      <point x="68" y="493"/>
      <point x="87" y="457"/>
      <point x="120" y="433" type="curve"/>
      <point x="169" y="453" type="line"/>
      <point x="148" y="474"/>
      <point x="136" y="500"/>
      <point x="136" y="534" type="curve" smooth="yes"/>
      <point x="136" y="567"/>
      <point x="166" y="605"/>
      <point x="220" y="605" type="curve" smooth="yes"/>
      <point x="276" y="605"/>
      <point x="305" y="570"/>
      <point x="305" y="514" type="curve" smooth="yes"/>
      <point x="305" y="428"/>
      <point x="236" y="374"/>
      <point x="36" y="334" type="curve"/>
      <point x="59" y="169"/>
      <point x="159.679" y="110"/>
      <point x="303" y="110" type="curve" smooth="yes"/>
      <point x="460.014" y="110"/>
      <point x="543" y="192"/>
      <point x="573" y="307" type="curve"/>
      <point x="531" y="324" type="line"/>
      <point x="504" y="235"/>
      <point x="414.488" y="170"/>
      <point x="307" y="170" type="curve" smooth="yes"/>
      <point x="189.228" y="170"/>
      <point x="112" y="233"/>
      <point x="106" y="293" type="curve"/>
      <point x="304" y="339"/>
      <point x="372" y="425"/>
      <point x="372" y="515" type="curve" smooth="yes"/>
      <point x="372" y="598"/>
      <point x="328" y="665"/>
      <point x="224" y="665" type="curve" smooth="yes"/>
    </contour>
    <contour>
      <point x="531" y="627" type="line"/>
      <point x="531" y="0" type="line"/>
      <point x="601" y="0" type="line"/>
      <point x="601" y="627" type="line"/>
    </contour>
    <contour>
      <point x="446" y="660" type="line"/>
      <point x="446" y="604" type="line"/>
      <point x="730" y="604" type="line"/>
      <point x="730" y="660" type="line"/>
    </contour>
    <contour>
      <point x="566" y="660" type="move" name="DVAnchor3"/>
    </contour>
  </outline>
</glyph>
<glyph name="dadeva" format="1">
  <advance width="593"/>
  <unicode hex="0926"/>
  <outline>
    <contour>
      <point x="133" y="459"/>
      <point x="43" y="409"/>
      <point x="43" y="282" type="curve" smooth="yes"/>
      <point x="43" y="168"/>
      <point x="138" y="102"/>
      <point x="260" y="102" type="curve" smooth="yes"/>
      <point x="393" y="102"/>
      <point x="446" y="140"/>
      <point x="487" y="183" type="curve" smooth="yes"/>
      <point x="524" y="221"/>
      <point x="523" y="294"/>
      <point x="463" y="310" type="curve" smooth="yes"/>
      <point x="412" y="324"/>
      <point x="367" y="269"/>
      <point x="385" y="198" type="curve"/>
      <point x="343" y="177"/>
      <point x="319" y="172"/>
      <point x="267" y="172" type="curve" smooth="yes"/>
      <point x="193" y="172"/>
      <point x="123" y="207"/>
      <point x="123" y="287" type="curve" smooth="yes"/>
      <point x="123" y="359"/>
      <point x="171" y="391"/>
      <point x="264" y="403" type="curve" smooth="yes"/>
      <point x="476" y="433" type="line"/>
      <point x="476" y="502" type="line"/>
      <point x="242" y="472" type="line" smooth="yes"/>
    </contour>
    <contour>
      <point x="396" y="627" type="line"/>
      <point x="396" y="460" type="line"/>
      <point x="476" y="460" type="line"/>
      <point x="476" y="627" type="line"/>
    </contour>
    <contour>
      <point x="-20" y="660" type="line"/>
      <point x="-20" y="594" type="line"/>
      <point x="613" y="594" type="line"/>
      <point x="613" y="660" type="line"/>
    </contour>
    <contour>
      <point x="397" y="147" type="line"/>
      <point x="420" y="85"/>
      <point x="441" y="35"/>
      <point x="487" y="-43" type="curve"/>
      <point x="572" y="-24" type="line"/>
      <point x="517" y="49"/>
      <point x="467" y="109"/>
      <point x="440" y="200" type="curve"/>
    </contour>
    <contour>
      <point x="540" y="7" type="move" name="DVAnchor0"/>
    </contour>
    <contour>
      <point x="436" y="660" type="move" name="DVAnchor3"/>
    </contour>
  </outline>
</glyph>
<glyph name="dhadeva" format="1">
  <advance width="723"/>
  <unicode hex="0927"/>
  <outline>
    <contour>
      <point x="210" y="426"/>
      <point x="85" y="391"/>
      <point x="85" y="262" type="curve" smooth="yes"/>
      <point x="85" y="158"/>
      <point x="168" y="108"/>
      <point x="283" y="108" type="curve" smooth="yes"/>
      <point x="408" y="108"/>
      <point x="517" y="168"/>
      <point x="579" y="239" type="curve"/>
      <point x="539" y="267" type="line"/>
      <point x="472" y="201"/>
      <point x="398" y="168"/>
      <point x="293" y="168" type="curve" smooth="yes"/>
      <point x="195" y="168"/>
      <point x="151" y="205"/>
      <point x="151" y="266" type="curve" smooth="yes"/>
      <point x="151" y="348"/>
      <point x="228" y="373"/>
      <point x="328" y="374" type="curve"/>
      <point x="311" y="427" type="line"/>
    </contour>
    <contour>
      <point x="539" y="627" type="line"/>
      <point x="539" y="0" type="line"/>
      <point x="609" y="0" type="line"/>
      <point x="609" y="627" type="line"/>
    </contour>
    <contour>
      <point x="408" y="660" type="line"/>
      <point x="408" y="604" type="line"/>
      <point x="738" y="604" type="line"/>
      <point x="738" y="660" type="line"/>
    </contour>
    <contour>
      <point x="134" y="665"/>
      <point x="77" y="604"/>
      <point x="77" y="526" type="curve" smooth="yes"/>
      <point x="77" y="426"/>
      <point x="193" y="376"/>
      <point x="328" y="374" type="curve"/>
      <point x="311" y="427" type="line"/>
      <point x="204" y="428"/>
      <point x="144" y="473"/>
      <point x="144" y="531" type="curve" smooth="yes"/>
      <point x="144" y="571"/>
      <point x="174" y="605"/>
      <point x="218" y="605" type="curve" smooth="yes"/>
      <point x="263" y="605"/>
      <point x="286" y="568"/>
      <point x="284" y="531" type="curve"/>
      <point x="335" y="554" type="line"/>
      <point x="344" y="631"/>
      <point x="298" y="665"/>
      <point x="224" y="665" type="curve" smooth="yes"/>
    </contour>
    <contour>
      <point x="554" y="660" type="move" name="DVAnchor3"/>
    </contour>
  </outline>
</glyph>
<glyph name="padeva" format="1">
  <advance width="637"/>
  <unicode hex="092A"/>
  <outline>
    <contour>
      <point x="98" y="627" type="line"/>
      <point x="98" y="339" type="line" smooth="yes"/>
      <point x="98" y="225.694"/>
      <point x="176.498" y="174"/>
      <point x="270" y="174" type="curve" smooth="yes"/>
      <point x="385" y="174"/>
      <point x="457.013" y="228.702"/>
      <point x="493" y="347" type="curve"/>
      <point x="453" y="368" type="line"/>
      <point x="424.354" y="288.496"/>
      <point x="363.222" y="234"/>
      <point x="293" y="234" type="curve" smooth="yes"/>
      <point x="214.303" y="234"/>
      <point x="168" y="269.534"/>
      <point x="168" y="366" type="curve" smooth="yes"/>
      <point x="168" y="627" type="line"/>
    </contour>
    <contour>
      <point x="453" y="627" type="line"/>
      <point x="453" y="0" type="line"/>
      <point x="523" y="0" type="line"/>
      <point x="523" y="627" type="line"/>
    </contour>
    <contour>
      <point x="-15" y="660" type="line"/>
      <point x="-15" y="604" type="line"/>
      <point x="652" y="604" type="line"/>
      <point x="652" y="660" type="line"/>
    </contour>
    <contour>
      <point x="488" y="660" type="move" name="DVAnchor3"/>
    </contour>
  </outline>
</glyph>
<glyph name="bhadeva" format="1">
  <advance width="731"/>
  <unicode hex="092D"/>
  <outline>
    <contour>
      <point x="545" y="627" type="line"/>
      <point x="545" y="0" type="line"/>
      <point x="615" y="0" type="line"/>
      <point x="615" y="627" type="line"/>
    </contour>
    <contour>
      <point x="404" y="660" type="line"/>
      <point x="404" y="604" type="line"/>
      <point x="746" y="604" type="line"/>
      <point x="746" y="660" type="line"/>
    </contour>
    <contour>
      <point x="545" y="627" type="line"/>
      <point x="545" y="0" type="line"/>
      <point x="615" y="0" type="line"/>
      <point x="615" y="627" type="line"/>
    </contour>
    <contour>
      <point x="404" y="660" type="line"/>
      <point x="404" y="604" type="line"/>
      <point x="746" y="604" type="line"/>
      <point x="746" y="660" type="line"/>
    </contour>
    <contour>
      <point x="291" y="617"/>
      <point x="244" y="660"/>
      <point x="167" y="660" type="curve" smooth="yes"/>
      <point x="95" y="660"/>
      <point x="39" y="621"/>
      <point x="39" y="548" type="curve" smooth="yes"/>
      <point x="39" y="488"/>
      <point x="78" y="439"/>
      <point x="148" y="438" type="curve"/>
      <point x="169" y="488" type="line"/>
      <point x="122" y="490"/>
      <point x="100" y="512"/>
      <point x="100" y="542" type="curve" smooth="yes"/>
      <point x="100" y="570"/>
      <point x="123" y="596"/>
      <point x="160" y="596" type="curve" smooth="yes"/>
      <point x="206" y="596"/>
      <point x="221" y="571"/>
      <point x="221" y="509" type="curve" smooth="yes"/>
      <point x="221" y="310" type="line" smooth="yes"/>
      <point x="221" y="295.807"/>
      <point x="265.167" y="292.863"/>
      <point x="259.877" y="297.096" type="curve" smooth="yes"/>
      <point x="254.66" y="301.269"/>
      <point x="249.304" y="306.625"/>
      <point x="244.159" y="312.799" type="curve" smooth="yes"/>
      <point x="241.704" y="315.744"/>
      <point x="246.488" y="279"/>
      <point x="254" y="279" type="curve" smooth="yes"/>
      <point x="572" y="279" type="line"/>
      <point x="572" y="335" type="line"/>
      <point x="197" y="335" type="line" smooth="yes"/>
      <point x="164.703" y="335"/>
      <point x="136.203" y="294.874"/>
      <point x="153.089" y="270.877" type="curve" smooth="yes"/>
      <point x="166.826" y="251.253"/>
      <point x="204.35" y="214.717"/>
      <point x="222.201" y="199.841" type="curve" smooth="yes"/>
      <point x="247.686" y="178.907"/>
      <point x="291" y="198.375"/>
      <point x="291" y="227" type="curve" smooth="yes"/>
      <point x="291" y="508" type="line" smooth="yes"/>
    </contour>
    <contour>
      <point x="580" y="660" type="move" name="DVAnchor3"/>
    </contour>
  </outline>
</glyph>
<glyph name="vadeva" format="1">
  <advance width="626"/>
  <unicode hex="0935"/>
  <outline>
    <contour>
      <point x="144" y="505"/>
      <point x="54" y="423"/>
      <point x="54" y="312" type="curve" smooth="yes"/>
      <point x="54" y="193"/>
      <point x="149" y="112"/>
      <point x="256" y="112" type="curve" smooth="yes"/>
      <point x="386" y="112"/>
      <point x="446" y="189"/>
      <point x="484" y="309" type="curve"/>
      <point x="437" y="325" type="line"/>
      <point x="402" y="235"/>
      <point x="350" y="182"/>
      <point x="266" y="182" type="curve" smooth="yes"/>
      <point x="194" y="182"/>
      <point x="134" y="227"/>
      <point x="134" y="310" type="curve" smooth="yes"/>
      <point x="134" y="391"/>
      <point x="189" y="433"/>
      <point x="259" y="433" type="curve" smooth="yes"/>
      <point x="295" y="433"/>
      <point x="325" y="423"/>
      <point x="348" y="405" type="curve"/>
      <point x="342" y="484" type="line"/>
      <point x="327" y="495"/>
      <point x="292" y="505"/>
      <point x="253" y="505" type="curve" smooth="yes"/>
    </contour>
    <contour>
      <point x="437" y="627" type="line"/>
      <point x="437" y="0" type="line"/>
      <point x="517" y="0" type="line"/>
      <point x="517" y="627" type="line"/>
    </contour>
    <contour>
      <point x="-20" y="660" type="line"/>
      <point x="-20" y="594" type="line"/>
      <point x="646" y="594" type="line"/>
      <point x="646" y="660" type="line"/>
    </contour>
    <contour>
      <point x="477" y="660" type="move" name="DVAnchor3"/>
    </contour>
  </outline>
</glyph>
<glyph name="aasigndeva" format="1">
  <advance width="302"/>
  <unicode hex="093E"/>
  <outline>
    <contour>
      <point x="111" y="627" type="line"/>
      <point x="111" y="0" type="line"/>
      <point x="191" y="0" type="line"/>
      <point x="191" y="627" type="line"/>
    </contour>
    <contour>
      <point x="-20" y="660" type="line"/>
      <point x="-20" y="594" type="line"/>
      <point x="322" y="594" type="line"/>
      <point x="322" y="660" type="line"/>
    </contour>
  </outline>
</glyph>
<glyph name="endash" format="1">
  <advance width="550"/>
  <unicode hex="2013"/>
  <outline>
    <contour>
      <point x="25" y="224" type="line"/>
      <point x="525" y="224" type="line"/>
      <point x="525" y="299" type="line"/>
      <point x="25" y="299" type="line"/>
    </contour>
  </outline>
</glyph>
<glyph name="emdash" format="1">
  <advance width="1000"/>
  <unicode hex="2014"/>
  <outline>
    <contour>
      <point x="75" y="224" type="line"/>
      <point x="925" y="224" type="line"/>
      <point x="925" y="299" type="line"/>
      <point x="75" y="299" type="line"/>
    </contour>
  </outline>
</glyph>
<glyph name="bullet" format="1">
  <advance width="500"/>
  <unicode hex="2022"/>
  <outline>
    <contour>
      <point x="163" y="475"/>
      <point x="100" y="414"/>
      <point x="100" y="330" type="curve" smooth="yes"/>
      <point x="100" y="246"/>
      <point x="163" y="185"/>
      <point x="250" y="185" type="curve" smooth="yes"/>
      <point x="337" y="185"/>
      <point x="400" y="246"/>
      <point x="400" y="330" type="curve" smooth="yes"/>
      <point x="400" y="414"/>
      <point x="337" y="475"/>
      <point x="250" y="475" type="curve" smooth="yes"/>
    </contour>
  </outline>
</glyph>
<glyph name="guilsinglleft" format="1">
  <advance width="389"/>
  <unicode hex="2039"/>
  <outline>
    <contour>
      <point x="62" y="276" type="line"/>
      <point x="62" y="224" type="line"/>
      <point x="319" y="28" type="line"/>
      <point x="319" y="118" type="line"/>
      <point x="156" y="250" type="line"/>
      <point x="319" y="386" type="line"/>
      <point x="319" y="472" type="line"/>
    </contour>
  </outline>
</glyph>
<glyph name="foursuperior" format="1">
  <advance width="320"/>
  <unicode hex="2074"/>
  <outline>
    <contour>
      <point x="156" y="660" type="line"/>
      <point x="12" y="449" type="line"/>
      <point x="47" y="432" type="line"/>
      <point x="96" y="487" type="line"/>
      <point x="154" y="571" type="line"/>
      <point x="201" y="660" type="line"/>
    </contour>
    <contour>
      <point x="178" y="660" type="line"/>
      <point x="165" y="434" type="line"/>
      <point x="165" y="306" type="line"/>
      <point x="225" y="306" type="line"/>
      <point x="225" y="434" type="line"/>
      <point x="225" y="660" type="line"/>
    </contour>
    <contour>
      <point x="104" y="456" type="line"/>
      <point x="12" y="449" type="line"/>
      <point x="12" y="404" type="line"/>
      <point x="288" y="404" type="line"/>
      <point x="288" y="456" type="line"/>
    </contour>
  </outline>
</glyph>
<glyph name="Euro" format="1">
  <advance width="622"/>
  <unicode hex="20AC"/>
  <outline>
    <contour>
      <point x="178" y="670"/>
      <point x="76" y="539"/>
      <point x="76" y="330" type="curve" smooth="yes"/>
      <point x="76" y="121"/>
      <point x="176" y="-10"/>
      <point x="352" y="-10" type="curve" smooth="yes"/>
      <point x="462" y="-10"/>
      <point x="561" y="56"/>
      <point x="598" y="169" type="curve"/>
      <point x="518" y="199" type="line"/>
      <point x="494" y="110"/>
      <point x="426" y="65"/>
      <point x="352" y="65" type="curve" smooth="yes"/>
      <point x="227" y="65"/>
      <point x="160" y="164"/>
      <point x="160" y="330" type="curve" smooth="yes"/>
      <point x="160" y="497"/>
      <point x="233" y="595"/>
      <point x="356" y="595" type="curve" smooth="yes"/>
      <point x="429" y="595"/>
      <point x="484" y="555"/>
      <point x="507" y="479" type="curve"/>
      <point x="586" y="516" type="line"/>
      <point x="550" y="616"/>
      <point x="463" y="670"/>
      <point x="350" y="670" type="curve" smooth="yes"/>
    </contour>
    <contour>
      <point x="0" y="285" type="line"/>
      <point x="0" y="220" type="line"/>
      <point x="365" y="220" type="line"/>
      <point x="365" y="285" type="line"/>
    </contour>
    <contour>
      <point x="0" y="442" type="line"/>
      <point x="0" y="377" type="line"/>
      <point x="365" y="377" type="line"/>
      <point x="365" y="442" type="line"/>
    </contour>
  </outline>
</glyph>
<glyph name="uni20BA" format="1">
  <advance width="647"/>
  <unicode hex="20BA"/>
  <outline>
    <contour>
      <point x="189" y="660" type="line"/>
      <point x="189" y="0" type="line"/>
      <point x="269" y="0" type="line"/>
      <point x="269" y="660" type="line"/>
    </contour>
    <contour>
      <point x="60" y="433" type="line"/>
      <point x="60" y="375" type="line"/>
      <point x="475" y="495" type="line"/>
      <point x="475" y="553" type="line"/>
    </contour>
    <contour>
      <point x="60" y="283" type="line"/>
      <point x="60" y="225" type="line"/>
      <point x="475" y="345" type="line"/>
      <point x="475" y="403" type="line"/>
    </contour>
    <contour>
      <point x="519" y="131"/>
      <point x="461" y="75"/>
      <point x="337" y="75" type="curve" smooth="yes"/>
      <point x="231" y="75" type="line"/>
      <point x="231" y="0" type="line"/>
      <point x="345" y="0" type="line" smooth="yes"/>
      <point x="506" y="0"/>
      <point x="592" y="85"/>
      <point x="599" y="268" type="curve"/>
      <point x="519" y="268" type="line"/>
    </contour>
  </outline>
</glyph>
<glyph name="Ohm" format="1">
  <advance width="772"/>
  <unicode hex="2126"/>
  <outline>
    <contour>
      <point x="198" y="670"/>
      <point x="80" y="539"/>
      <point x="80" y="330" type="curve" smooth="yes"/>
      <point x="80" y="178"/>
      <point x="164" y="69"/>
      <point x="305" y="29" type="curve"/>
      <point x="329" y="74" type="line"/>
      <point x="226" y="102"/>
      <point x="164" y="193"/>
      <point x="164" y="330" type="curve" smooth="yes"/>
      <point x="164" y="496"/>
      <point x="249" y="595"/>
      <point x="386" y="595" type="curve" smooth="yes"/>
      <point x="523" y="595"/>
      <point x="608" y="496"/>
      <point x="608" y="330" type="curve" smooth="yes"/>
      <point x="608" y="193"/>
      <point x="546" y="102"/>
      <point x="443" y="74" type="curve"/>
      <point x="467" y="29" type="line"/>
      <point x="608" y="69"/>
      <point x="692" y="178"/>
      <point x="692" y="330" type="curve" smooth="yes"/>
      <point x="692" y="539"/>
      <point x="574" y="670"/>
      <point x="386" y="670" type="curve" smooth="yes"/>
    </contour>
    <contour>
      <point x="70" y="0" type="line"/>
      <point x="329" y="-1" type="line"/>
      <point x="329" y="74" type="line"/>
      <point x="70" y="75" type="line"/>
    </contour>
    <contour>
      <point x="443" y="74" type="line"/>
      <point x="443" y="-1" type="line"/>
      <point x="702" y="0" type="line"/>
      <point x="702" y="75" type="line"/>
    </contour>
  </outline>
</glyph>
<glyph name="partialdiff" format="1">
  <advance width="606"/>
  <unicode hex="2202"/>
  <outline>
    <contour>
      <point x="460" y="-10"/>
      <point x="550" y="109"/>
      <point x="550" y="330" type="curve" smooth="yes"/>
      <point x="550" y="541"/>
      <point x="474" y="670"/>
      <point x="284" y="670" type="curve" smooth="yes"/>
      <point x="212" y="670"/>
      <point x="153" y="644"/>
      <point x="103" y="600" type="curve"/>
      <point x="150" y="533" type="line"/>
      <point x="192" y="574"/>
      <point x="221" y="595"/>
      <point x="282" y="595" type="curve" smooth="yes"/>
      <point x="403" y="595"/>
      <point x="470" y="517"/>
      <point x="470" y="330" type="curve" smooth="yes"/>
      <point x="470" y="160"/>
      <point x="409" y="66"/>
      <point x="294" y="67" type="curve" smooth="yes"/>
      <point x="202" y="66"/>
      <point x="151" y="125"/>
      <point x="151" y="215" type="curve" smooth="yes"/>
      <point x="151" y="304"/>
      <point x="202" y="363"/>
      <point x="289" y="363" type="curve" smooth="yes"/>
      <point x="386" y="363"/>
      <point x="445" y="308"/>
      <point x="467" y="229" type="curve"/>
      <point x="515" y="236" type="line"/>
      <point x="502" y="360"/>
      <point x="408" y="438"/>
      <point x="290" y="438" type="curve" smooth="yes"/>
      <point x="161" y="438"/>
      <point x="67" y="345"/>
      <point x="67" y="214" type="curve" smooth="yes"/>
      <point x="67" y="83"/>
      <point x="155" y="-10"/>
      <point x="294" y="-10" type="curve" smooth="yes"/>
    </contour>
  </outline>
</glyph>
<glyph name="increment" format="1">
  <advance width="639"/>
  <unicode hex="2206"/>
  <outline>
    <contour>
      <point x="10" y="75" type="line"/>
      <point x="87" y="49" type="line"/>
      <point x="350" y="660" type="line"/>
      <point x="265" y="660" type="line"/>
    </contour>
    <contour>
      <point x="10" y="75" type="line"/>
      <point x="10" y="0" type="line"/>
      <point x="629" y="0" type="line"/>
      <point x="629" y="75" type="line"/>
    </contour>
    <contour>
      <point x="288" y="660" type="line"/>
      <point x="552" y="49" type="line"/>
      <point x="629" y="75" type="line"/>
      <point x="374" y="660" type="line"/>
    </contour>
  </outline>
</glyph>
<glyph name="product" format="1">
  <advance width="618"/>
  <unicode hex="220F"/>
  <outline>
    <contour>
      <point x="488" y="730" type="line"/>
      <point x="488" y="-168" type="line"/>
      <point x="568" y="-168" type="line"/>
      <point x="568" y="730" type="line"/>
    </contour>
    <contour>
      <point x="50" y="730" type="line"/>
      <point x="50" y="-168" type="line"/>
      <point x="130" y="-168" type="line"/>
      <point x="130" y="730" type="line"/>
    </contour>
    <contour>
      <point x="92" y="730" type="line"/>
      <point x="92" y="655" type="line"/>
      <point x="525" y="655" type="line"/>
      <point x="525" y="730" type="line"/>
    </contour>
  </outline>
</glyph>
<glyph name="summation" format="1">
  <advance width="618"/>
  <unicode hex="2211"/>
  <outline>
    <contour>
      <point x="59" y="655" type="line"/>
      <point x="386" y="281" type="line"/>
      <point x="493" y="281" type="line"/>
      <point x="115" y="706" type="line"/>
    </contour>
    <contour>
      <point x="59" y="655" type="line"/>
      <point x="575" y="655" type="line"/>
      <point x="575" y="730" type="line"/>
      <point x="59" y="730" type="line"/>
    </contour>
    <contour>
      <point x="493" y="281" type="line"/>
      <point x="386" y="281" type="line"/>
      <point x="59" y="-93" type="line"/>
      <point x="115" y="-144" type="line"/>
    </contour>
    <contour>
      <point x="575" y="-168" type="line"/>
      <point x="575" y="-93" type="line"/>
      <point x="59" y="-93" type="line"/>
      <point x="59" y="-168" type="line"/>
    </contour>
  </outline>
</glyph>
<glyph name="infinity" format="1">
  <advance width="790"/>
  <unicode hex="221E"/>
  <outline>
    <contour>
      <point x="372" y="245" type="curve" smooth="yes"/>
      <point x="509" y="82"/>
      <point x="541" y="70"/>
      <point x="602" y="70" type="curve" smooth="yes"/>
      <point x="692" y="70"/>
      <point x="767" y="144"/>
      <point x="767" y="270" type="curve" smooth="yes"/>
      <point x="767" y="396"/>
      <point x="692" y="470"/>
      <point x="602" y="470" type="curve" smooth="yes"/>
      <point x="539" y="470"/>
      <point x="509" y="459"/>
      <point x="368" y="291" type="curve" smooth="yes"/>
      <point x="251" y="151"/>
      <point x="241" y="140"/>
      <point x="191" y="140" type="curve" smooth="yes"/>
      <point x="147" y="140"/>
      <point x="106" y="187"/>
      <point x="106" y="270" type="curve" smooth="yes"/>
      <point x="106" y="353"/>
      <point x="147" y="400"/>
      <point x="191" y="400" type="curve" smooth="yes"/>
      <point x="240" y="400"/>
      <point x="245" y="396"/>
    </contour>
    <contour>
      <point x="98" y="470"/>
      <point x="23" y="396"/>
      <point x="23" y="270" type="curve" smooth="yes"/>
      <point x="23" y="144"/>
      <point x="98" y="70"/>
      <point x="188" y="70" type="curve" smooth="yes"/>
      <point x="267" y="70"/>
      <point x="278" y="78"/>
      <point x="417" y="246" type="curve" smooth="yes"/>
      <point x="539" y="393"/>
      <point x="550" y="400"/>
      <point x="599" y="400" type="curve" smooth="yes"/>
      <point x="643" y="400"/>
      <point x="684" y="353"/>
      <point x="684" y="270" type="curve" smooth="yes"/>
      <point x="684" y="187"/>
      <point x="643" y="139"/>
      <point x="599" y="140" type="curve" smooth="yes"/>
      <point x="553" y="141"/>
      <point x="535" y="149"/>
      <point x="415" y="298" type="curve" smooth="yes"/>
      <point x="296" y="446"/>
      <point x="268" y="470"/>
      <point x="188" y="470" type="curve" smooth="yes"/>
    </contour>
  </outline>
</glyph>
<glyph name="integral" format="1">
  <advance width="404"/>
  <unicode hex="222B"/>
  <outline>
    <contour>
      <point x="162" y="-70"/>
      <point x="126" y="-95"/>
      <point x="85" y="-95" type="curve" smooth="yes"/>
      <point x="51" y="-95"/>
      <point x="30" y="-85"/>
      <point x="12" y="-72" type="curve"/>
      <point x="0" y="-144" type="line"/>
      <point x="22" y="-157"/>
      <point x="40" y="-168"/>
      <point x="92" y="-168" type="curve" smooth="yes"/>
      <point x="185" y="-168"/>
      <point x="242" y="-106"/>
      <point x="242" y="-17" type="curve" smooth="yes"/>
      <point x="242" y="669" type="line" smooth="yes"/>
      <point x="242" y="730"/>
      <point x="278" y="755"/>
      <point x="319" y="755" type="curve" smooth="yes"/>
      <point x="353" y="755"/>
      <point x="374" y="745"/>
      <point x="392" y="732" type="curve"/>
      <point x="404" y="804" type="line"/>
      <point x="382" y="817"/>
      <point x="364" y="828"/>
      <point x="312" y="828" type="curve" smooth="yes"/>
      <point x="219" y="828"/>
      <point x="162" y="766"/>
      <point x="162" y="677" type="curve" smooth="yes"/>
      <point x="162" y="-9" type="line" smooth="yes"/>
    </contour>
  </outline>
</glyph>
<glyph name="approxequal" format="1">
  <advance width="572"/>
  <unicode hex="2248"/>
  <outline>
    <contour>
      <point x="118" y="460"/>
      <point x="86" y="444"/>
      <point x="43" y="405" type="curve"/>
      <point x="43" y="315" type="line"/>
      <point x="83" y="353"/>
      <point x="116" y="370"/>
      <point x="175" y="370" type="curve" smooth="yes"/>
      <point x="251" y="370"/>
      <point x="320" y="300"/>
      <point x="400" y="300" type="curve" smooth="yes"/>
      <point x="449" y="300"/>
      <point x="489" y="317"/>
      <point x="529" y="355" type="curve"/>
      <point x="529" y="445" type="line"/>
      <point x="483" y="401"/>
      <point x="445" y="390"/>
      <point x="401" y="390" type="curve" smooth="yes"/>
      <point x="328" y="390"/>
      <point x="260" y="460"/>
      <point x="175" y="460" type="curve" smooth="yes"/>
    </contour>
    <contour>
      <point x="118" y="260"/>
      <point x="86" y="244"/>
      <point x="43" y="205" type="curve"/>
      <point x="43" y="115" type="line"/>
      <point x="83" y="153"/>
      <point x="116" y="170"/>
      <point x="175" y="170" type="curve" smooth="yes"/>
      <point x="251" y="170"/>
      <point x="320" y="100"/>
      <point x="400" y="100" type="curve" smooth="yes"/>
      <point x="449" y="100"/>
      <point x="489" y="117"/>
      <point x="529" y="155" type="curve"/>
      <point x="529" y="245" type="line"/>
      <point x="483" y="201"/>
      <point x="445" y="190"/>
      <point x="401" y="190" type="curve" smooth="yes"/>
      <point x="328" y="190"/>
      <point x="260" y="260"/>
      <point x="175" y="260" type="curve" smooth="yes"/>
    </contour>
  </outline>
</glyph>
<glyph name="lozenge" format="1">
  <advance width="620"/>
  <unicode hex="25CA"/>
  <outline>
    <contour>
      <point x="262" y="0" type="line"/>
      <point x="343" y="0" type="line"/>
      <point x="155" y="330" type="line"/>
      <point x="64" y="330" type="line"/>
    </contour>
    <contour>
      <point x="277" y="0" type="line"/>
      <point x="357" y="0" type="line"/>
      <point x="556" y="330" type="line"/>
      <point x="465" y="330" type="line"/>
    </contour>
    <contour>
      <point x="155" y="330" type="line"/>
      <point x="343" y="660" type="line"/>
      <point x="262" y="660" type="line"/>
      <point x="64" y="330" type="line"/>
    </contour>
    <contour>
      <point x="556" y="330" type="line"/>
      <point x="357" y="660" type="line"/>
      <point x="277" y="660" type="line"/>
      <point x="465" y="330" type="line"/>
    </contour>
  </outline>
</glyph>
<glyph name="asteriskline" format="1">
  <advance width="524"/>
  <outline>
    <contour>
      <point x="227" y="373" type="line"/>
      <point x="227" y="252" type="line"/>
      <point x="297" y="252" type="line"/>
      <point x="297" y="373" type="line"/>
      <point x="280" y="458" type="line"/>
      <point x="280" y="524" type="line"/>
      <point x="297" y="609" type="line"/>
      <point x="297" y="730" type="line"/>
      <point x="227" y="730" type="line"/>
      <point x="227" y="609" type="line"/>
      <point x="244" y="524" type="line"/>
      <point x="244" y="458" type="line"/>
    </contour>
  </outline>
</glyph>
<glyph name="ausign_ra_virama_anusvara.001" format="1">
  <advance width="315"/>
  <outline>
    <contour>
      <point x="123" y="627" type="line"/>
      <point x="123" y="0" type="line"/>
      <point x="203" y="0" type="line"/>
      <point x="203" y="627" type="line"/>
    </contour>
    <contour>
      <point x="-20" y="660" type="line"/>
      <point x="-20" y="594" type="line"/>
      <point x="335" y="594" type="line"/>
      <point x="335" y="660" type="line"/>
    </contour>
    <contour>
      <point x="205" y="1013"/>
      <point x="53" y="927"/>
      <point x="139" y="764" type="curve" smooth="yes"/>
      <point x="206" y="637" type="line"/>
      <point x="224" y="637" type="line"/>
      <point x="174" y="742" type="line" smooth="yes"/>
      <point x="105" y="888"/>
      <point x="237" y="916"/>
      <point x="338" y="873" type="curve"/>
      <point x="329" y="946" type="line"/>
    </contour>
    <contour>
      <point x="135" y="606" type="line"/>
      <point x="161" y="642" type="line"/>
      <point x="-189" y="925" type="line"/>
      <point x="-240" y="851" type="line"/>
    </contour>
    <contour>
      <point x="187" y="612" type="line"/>
      <point x="224" y="637" type="line"/>
      <point x="8" y="1001" type="line"/>
      <point x="-60" y="946" type="line"/>
    </contour>
    <contour>
      <point x="253" y="822"/>
      <point x="230" y="800"/>
      <point x="230" y="772" type="curve" smooth="yes"/>
      <point x="230" y="744"/>
      <point x="253" y="722"/>
      <point x="280" y="722" type="curve" smooth="yes"/>
      <point x="308" y="722"/>
      <point x="330" y="744"/>
      <point x="330" y="772" type="curve" smooth="yes"/>
      <point x="330" y="800"/>
      <point x="308" y="822"/>
      <point x="280" y="822" type="curve" smooth="yes"/>
    </contour>
  </outline>
</glyph>
<glyph name="bowl" format="1">
  <advance width="610"/>
  <outline>
    <contour>
      <point x="175" y="510"/>
      <point x="88" y="413"/>
      <point x="88" y="250" type="curve" smooth="yes"/>
      <point x="88" y="87"/>
      <point x="175" y="-10"/>
      <point x="320" y="-10" type="curve" smooth="yes"/>
      <point x="436" y="-10"/>
      <point x="497" y="68"/>
      <point x="504" y="163" type="curve"/>
      <point x="474" y="187" type="line"/>
      <point x="448" y="115"/>
      <point x="406" y="60"/>
      <point x="317" y="60" type="curve" smooth="yes"/>
      <point x="228" y="60"/>
      <point x="171" y="134"/>
      <point x="171" y="250" type="curve" smooth="yes"/>
      <point x="171" y="366"/>
      <point x="228" y="440"/>
      <point x="317" y="440" type="curve" smooth="yes"/>
      <point x="406" y="440"/>
      <point x="448" y="385"/>
      <point x="474" y="313" type="curve"/>
      <point x="504" y="337" type="line"/>
      <point x="497" y="432"/>
      <point x="436" y="510"/>
      <point x="320" y="510" type="curve" smooth="yes"/>
    </contour>
  </outline>
</glyph>
<glyph name="caron.alt" format="1">
  <advance width="239"/>
  <outline>
    <contour>
      <point x="89" y="730" type="line"/>
      <point x="69" y="533" type="line"/>
      <point x="119" y="533" type="line"/>
      <point x="170" y="730" type="line"/>
    </contour>
    <contour>
      <point x="89" y="730" type="move" name="_topright"/>
    </contour>
  </outline>
</glyph>
<glyph name="ddadeva_viramadeva_ddadeva" format="1">
  <advance width="670"/>
  <outline>
    <contour>
      <point x="-20" y="660" type="line"/>
      <point x="-20" y="594" type="line"/>
      <point x="690" y="594" type="line"/>
      <point x="690" y="660" type="line"/>
    </contour>
    <contour>
      <point x="487" y="627" type="line"/>
      <point x="487" y="456" type="line"/>
      <point x="567" y="456" type="line"/>
      <point x="567" y="627" type="line"/>
    </contour>
    <contour>
      <point x="215" y="197" type="line"/>
      <point x="166" y="195"/>
      <point x="122" y="165"/>
      <point x="122" y="113" type="curve" smooth="yes"/>
      <point x="122" y="32"/>
      <point x="217" y="-3"/>
      <point x="295" y="-3" type="curve" smooth="yes"/>
      <point x="375" y="-3"/>
      <point x="458" y="26"/>
      <point x="492" y="26" type="curve" smooth="yes"/>
      <point x="523" y="26"/>
      <point x="536" y="19"/>
      <point x="535" y="-13" type="curve" smooth="yes"/>
      <point x="534" y="-52"/>
      <point x="468" y="-90"/>
      <point x="356" y="-90" type="curve" smooth="yes"/>
      <point x="215" y="-90"/>
      <point x="133" y="-53"/>
      <point x="80" y="41" type="curve"/>
      <point x="29" y="1" type="line"/>
      <point x="88" y="-88"/>
      <point x="174" y="-153"/>
      <point x="358" y="-153" type="curve" smooth="yes"/>
      <point x="494" y="-153"/>
      <point x="606" y="-102"/>
      <point x="606" y="4" type="curve" smooth="yes"/>
      <point x="606" y="87"/>
      <point x="554" y="99"/>
      <point x="511" y="99" type="curve" smooth="yes"/>
      <point x="455" y="99"/>
      <point x="372" y="67"/>
      <point x="315" y="67" type="curve" smooth="yes"/>
      <point x="236" y="67"/>
      <point x="196" y="92"/>
      <point x="196" y="121" type="curve" smooth="yes"/>
      <point x="196" y="141"/>
      <point x="212" y="160"/>
      <point x="264" y="164" type="curve"/>
    </contour>
    <contour>
      <point x="253" y="522" type="line" smooth="yes"/>
      <point x="166" y="522"/>
      <point x="126" y="473"/>
      <point x="126" y="418" type="curve" smooth="yes"/>
      <point x="126" y="326"/>
      <point x="217" y="291"/>
      <point x="295" y="291" type="curve" smooth="yes"/>
      <point x="375" y="291"/>
      <point x="458" y="320"/>
      <point x="492" y="320" type="curve" smooth="yes"/>
      <point x="523" y="320"/>
      <point x="536" y="313"/>
      <point x="535" y="281" type="curve" smooth="yes"/>
      <point x="534" y="242"/>
      <point x="468" y="204"/>
      <point x="356" y="204" type="curve" smooth="yes"/>
      <point x="215" y="204"/>
      <point x="133" y="241"/>
      <point x="80" y="335" type="curve"/>
      <point x="29" y="295" type="line"/>
      <point x="88" y="206"/>
      <point x="174" y="141"/>
      <point x="358" y="141" type="curve" smooth="yes"/>
      <point x="494" y="141"/>
      <point x="606" y="192"/>
      <point x="606" y="298" type="curve" smooth="yes"/>
      <point x="606" y="381"/>
      <point x="554" y="393"/>
      <point x="511" y="393" type="curve" smooth="yes"/>
      <point x="455" y="393"/>
      <point x="372" y="361"/>
      <point x="315" y="361" type="curve" smooth="yes"/>
      <point x="259" y="361"/>
      <point x="206" y="378"/>
      <point x="206" y="414" type="curve" smooth="yes"/>
      <point x="206" y="443"/>
      <point x="224" y="456"/>
      <point x="258" y="456" type="curve" smooth="yes"/>
      <point x="530" y="456" type="line"/>
      <point x="530" y="522" type="line"/>
    </contour>
    <contour>
      <point x="360" y="-113" type="move" name="DVAnchor0"/>
    </contour>
  </outline>
</glyph>
